<?xml version="1.0" standalone="no"?>

<svg version="1.0" xmlns="http://www.w3.org/2000/svg" width="1448.000000pt" height="1086.000000pt" viewBox="0 0 1448.000000 1086.000000" preserveAspectRatio="xMidYMid meet">
<metadata>
Created by potrace 1.16, written by Peter Selinger 2001-2019
</metadata>
<g transform="translate(0.000000,1086.000000) scale(0.100000,-0.100000)" fill="#0a0a0a" stroke="none">
<path d="M7089 7778 c-41 -22 -87 -59 -324 -263 -51 -44 -129 -102 -173 -128&#xA;-89 -52 -125 -89 -209 -214 -30 -46 -59 -83 -63 -83 -3 0 -35 -26 -70 -57&#xA;-166 -151 -495 -403 -590 -452 -84 -43 -117 -75 -200 -191 -37 -52 -88 -114&#xA;-112 -137 -68 -66 -177 -118 -298 -143 -139 -29 -179 -45 -291 -118 -52 -34&#xA;-111 -68 -131 -76 -57 -24 -213 -46 -326 -46 -151 0 -218 -19 -424 -120 -196&#xA;-97 -225 -106 -478 -144 -91 -14 -190 -33 -220 -41 -30 -9 -190 -83 -355 -165&#xA;-169 -84 -361 -171 -440 -200 -93 -34 -176 -73 -247 -116 -179 -108 -271 -140&#xA;-503 -174 -180 -26 -177 -24 -600 -276 -188 -111 -232 -130 -371 -158 -151&#xA;-30 -327 -101 -332 -134 -5 -32 23 -28 129 18 55 25 139 51 213 66 160 34 255&#xA;79 574 275 35 22 65 39 68 39 2 0 4 -8 4 -19 0 -44 70 -52 139 -17 14 8 55 20&#xA;91 27 36 7 76 20 89 30 13 10 37 23 55 28 17 5 63 20 101 35 l70 26 -30 -25&#xA;c-16 -14 -34 -25 -38 -25 -20 0 -157 -71 -153 -79 3 -5 -11 -20 -32 -34 -21&#xA;-14 -65 -48 -98 -77 -64 -56 -129 -93 -184 -105 -19 -4 -61 -18 -92 -31 -32&#xA;-13 -61 -24 -65 -24 -12 0 44 45 122 97 39 25 72 50 75 54 7 10 148 69 165 69&#xA;7 0 30 14 51 31 39 30 39 31 9 24 -27 -7 -119 -34 -188 -55 -32 -11 -189 -113&#xA;-208 -136 -7 -9 -46 -43 -87 -76 -64 -53 -72 -62 -59 -75 13 -13 27 -10 118&#xA;21 57 20 135 45 173 56 94 28 117 41 197 116 39 35 75 64 80 64 5 0 26 16 48&#xA;35 21 19 65 47 97 62 33 15 79 41 104 59 25 18 64 37 86 43 47 12 73 36 57 52&#xA;-20 20 -326 -40 -368 -73 -14 -11 -73 -35 -130 -54 -88 -28 -109 -32 -130 -22&#xA;-14 6 -25 15 -25 20 0 5 32 24 71 43 66 32 94 38 284 66 95 14 232 52 295 81&#xA;25 11 92 49 150 84 58 34 155 82 215 105 157 59 345 145 535 245 240 126 286&#xA;140 559 179 177 26 253 49 420 131 131 64 221 104 237 104 2 0 -8 -21 -21 -46&#xA;-14 -26 -25 -53 -25 -59 0 -7 -14 -26 -30 -42 -52 -51 -79 -93 -74 -116 19&#xA;-85 19 -86 -23 -130 -53 -55 -73 -96 -73 -152 0 -47 24 -85 55 -85 20 0 38&#xA;-36 30 -61 -4 -12 2 -34 14 -55 28 -46 26 -73 -6 -131 -44 -81 -103 -163 -116&#xA;-163 -7 0 -43 -21 -80 -47 -37 -27 -99 -68 -139 -93 -103 -65 -276 -178 -323&#xA;-210 -86 -59 -184 -101 -340 -145 -44 -12 -105 -32 -135 -44 -60 -25 -60 -24&#xA;20 36 150 113 169 180 34 118 -30 -14 -82 -34 -117 -46 -82 -28 -95 -35 -142&#xA;-78 -22 -21 -60 -46 -85 -56 -25 -10 -63 -33 -85 -50 -22 -18 -51 -36 -64 -40&#xA;-13 -4 -59 -41 -102 -83 -112 -107 -93 -120 91 -61 121 39 238 101 335 179 22&#xA;17 41 27 43 21 6 -17 34 -13 86 9 25 12 97 36 160 54 135 40 254 94 356 162&#xA;41 28 129 87 195 131 66 44 147 95 180 113 33 18 73 44 88 56 30 26 36 27 82&#xA;24 65 -3 104 -20 134 -59 19 -23 42 -41 60 -44 17 -4 45 -23 63 -43 42 -47 50&#xA;-54 183 -158 61 -48 131 -104 158 -126 26 -21 64 -44 85 -50 20 -7 51 -25 67&#xA;-40 17 -16 73 -48 125 -73 62 -29 116 -63 155 -98 33 -30 85 -74 115 -99 72&#xA;-58 131 -120 124 -131 -3 -5 -27 -9 -54 -9 -42 0 -52 -4 -66 -26 -15 -22 -22&#xA;-25 -58 -19 -23 4 -51 14 -64 22 -13 8 -47 18 -76 23 -34 5 -75 23 -114 48&#xA;-34 22 -74 43 -89 46 -14 4 -50 23 -78 42 -29 19 -56 34 -62 34 -5 0 -24 11&#xA;-43 25 -24 18 -47 25 -77 25 -38 0 -43 3 -43 23 0 35 -24 62 -91 103 -33 20&#xA;-83 52 -111 70 -27 19 -54 34 -60 34 -5 0 -24 11 -41 24 -37 27 -133 52 -169&#xA;43 -14 -4 -58 -41 -99 -83 -41 -41 -87 -83 -104 -91 -16 -8 -42 -27 -57 -41&#xA;-50 -46 -429 -242 -728 -374 -269 -120 -379 -147 -620 -155 -165 -4 -182 -7&#xA;-287 -40 -117 -37 -143 -52 -120 -71 10 -8 43 -2 128 23 100 31 127 35 224 35&#xA;226 0 400 37 630 135 165 70 544 252 606 291 66 41 167 94 181 94 8 0 58 -36&#xA;112 -80 73 -60 106 -80 127 -80 17 0 42 -8 57 -18 15 -10 41 -28 57 -39 24&#xA;-16 54 -22 143 -28 62 -4 112 -4 112 0 0 18 -30 56 -109 134 -72 72 -95 90&#xA;-136 101 -28 7 -63 24 -78 37 -32 26 -40 27 -68 13 -10 -6 -58 -9 -105 -8&#xA;l-87 3 52 33 c28 19 73 58 99 89 45 52 94 88 105 77 2 -3 26 -10 52 -17 27 -7&#xA;51 -19 55 -27 28 -57 50 -109 50 -117 0 -19 37 -43 91 -59 30 -9 76 -30 104&#xA;-47 40 -26 60 -32 105 -32 48 0 61 -5 93 -31 21 -17 48 -36 60 -42 12 -5 58&#xA;-26 102 -47 44 -20 100 -49 125 -65 25 -15 68 -31 95 -35 28 -3 59 -12 70 -19&#xA;17 -11 110 -36 134 -36 4 0 22 14 39 30 27 25 40 30 81 30 48 0 81 17 81 42 0&#xA;13 -136 146 -229 223 -149 125 -175 144 -220 161 -25 9 -61 28 -80 42 -18 13&#xA;-63 41 -101 61 -67 36 -120 74 -254 184 -39 33 -82 65 -96 72 -14 7 -40 32&#xA;-59 55 -18 23 -50 49 -69 57 -20 8 -54 34 -77 58 -35 36 -51 44 -94 50 -28 4&#xA;-51 9 -51 11 0 3 17 31 39 62 45 66 81 143 81 170 0 11 -9 39 -20 63 -11 24&#xA;-20 60 -20 79 0 43 -7 53 -47 74 -31 15 -32 19 -28 64 2 26 4 50 5 53 0 3 21&#xA;32 46 65 45 58 46 60 40 113 -6 53 -6 54 37 95 24 24 51 63 61 90 l18 48 19&#xA;-28 c10 -15 25 -31 33 -36 9 -5 16 -20 16 -34 0 -14 5 -45 11 -69 9 -36 16&#xA;-44 40 -49 16 -3 42 -3 59 0 25 5 31 2 41 -20 7 -14 19 -26 27 -26 9 0 12 -6&#xA;8 -16 -3 -9 -6 -29 -6 -45 0 -20 -5 -29 -15 -29 -26 0 -79 -30 -102 -58 l-23&#xA;-27 0 31 c0 34 -22 60 -41 49 -7 -5 -9 -26 -4 -64 l6 -56 -23 32 c-13 18 -26&#xA;33 -30 33 -12 0 -9 -68 2 -75 6 -4 8 -10 5 -15 -9 -15 14 -50 33 -50 17 0 57&#xA;44 81 91 9 18 34 36 78 55 52 21 68 34 79 59 10 24 23 35 56 45 24 7 54 20 67&#xA;28 16 10 39 13 71 9 50 -6 49 -6 385 115 186 67 249 81 335 73 71 -6 81 -4&#xA;203 39 70 25 150 56 178 69 46 23 50 23 59 7 5 -10 16 -20 24 -23 18 -7 115&#xA;41 167 83 20 16 56 39 80 51 46 24 62 36 201 157 86 74 144 152 114 152 -8 0&#xA;-35 -19 -59 -42 -101 -97 -174 -148 -211 -148 -39 0 -201 -79 -265 -129 -50&#xA;-40 -104 -65 -191 -91 -41 -13 -100 -34 -130 -48 -47 -21 -75 -26 -190 -32&#xA;-117 -5 -149 -10 -235 -40 -112 -37 -208 -74 -305 -116 -48 -21 -82 -29 -131&#xA;-30 -77 -1 -205 -45 -212 -72 -2 -10 -7 -1 -11 20 -5 21 -23 54 -42 75 -32 35&#xA;-35 36 -69 26 -46 -14 -65 3 -65 58 0 32 -9 51 -45 97 -68 87 -60 102 59 102&#xA;55 0 61 -2 108 -45 32 -29 67 -49 95 -57 26 -6 56 -23 73 -41 l28 -30 61 12&#xA;c55 11 64 10 103 -10 38 -19 52 -21 145 -15 87 5 123 13 235 52 73 25 161 52&#xA;196 60 83 18 149 47 248 106 51 31 105 55 147 64 95 22 178 78 217 148 32 57&#xA;56 83 66 73 4 -3 9 -21 13 -39 10 -49 34 -47 115 10 39 27 111 73 159 102 49&#xA;28 104 62 123 75 19 13 71 37 116 54 44 18 99 45 122 62 43 31 106 121 106&#xA;151 0 10 15 35 34 55 55 63 66 93 66 188 l0 85 67 128 c36 70 79 151 95 181&#xA;33 63 35 95 8 136 -24 36 -26 95 -5 135 8 16 12 36 9 44 -10 27 -39 18 -57&#xA;-16 -9 -18 -38 -59 -64 -91 -42 -52 -45 -59 -31 -73 14 -14 19 -12 49 25 23&#xA;30 35 38 41 29 19 -31 7 -57 -44 -97 -29 -23 -78 -66 -109 -96 -31 -30 -60&#xA;-55 -65 -55 -11 0 -51 -20 -204 -101 -117 -62 -160 -82 -160 -72 1 25 43 51&#xA;160 102 l131 56 47 106 c26 58 53 113 61 122 15 19 8 47 -12 47 -16 0 -41 -28&#xA;-82 -89 -18 -26 -44 -50 -65 -59 -19 -8 -52 -32 -73 -53 -34 -33 -110 -69&#xA;-123 -57 -2 2 15 26 37 52 22 27 47 62 57 78 9 16 54 52 100 80 45 28 117 81&#xA;158 117 42 36 108 93 147 125 40 32 91 76 115 97 24 21 64 46 88 55 42 16 55&#xA;16 207 1 89 -10 197 -20 240 -23 45 -3 80 -11 83 -17 2 -7 -7 -34 -21 -61 -14&#xA;-27 -25 -55 -25 -62 0 -19 -49 -54 -76 -54 -13 0 -34 5 -48 11 -33 15 -52 1&#xA;-60 -46 -3 -19 -9 -50 -12 -69 -7 -39 18 -127 42 -146 7 -7 14 -23 14 -37 0&#xA;-40 -31 -123 -52 -137 -24 -17 -78 -148 -78 -190 0 -17 9 -56 21 -86 20 -54&#xA;21 -57 4 -135 -20 -95 -50 -177 -82 -225 -13 -19 -23 -41 -23 -49 0 -7 -24&#xA;-46 -54 -85 -30 -39 -62 -87 -71 -106 -10 -19 -28 -48 -40 -65 -12 -16 -38&#xA;-60 -58 -96 -32 -59 -35 -68 -22 -79 13 -11 25 -7 69 24 29 20 57 36 62 36 6&#xA;0 44 35 86 78 73 75 107 136 124 222 3 14 18 41 34 60 l28 35 7 -30 c11 -50&#xA;14 -57 25 -50 5 3 10 35 10 69 0 48 8 82 30 137 17 41 35 78 41 84 14 14 36&#xA;-14 43 -57 6 -34 4 -39 -33 -69 -33 -26 -41 -40 -47 -78 -4 -25 -15 -63 -26&#xA;-84 -17 -34 -20 -36 -34 -22 -16 16 -36 20 -47 9 -9 -10 41 -104 56 -104 11 0&#xA;26 20 70 92 10 15 17 46 17 68 0 35 7 48 45 89 41 43 45 53 45 97 0 57 -45&#xA;174 -67 174 -8 0 -21 -17 -29 -37 -9 -21 -29 -59 -45 -84 -16 -25 -38 -74 -50&#xA;-109 -16 -50 -31 -73 -65 -103 -24 -21 -47 -51 -50 -65 -19 -86 -40 -127 -95&#xA;-190 -55 -62 -135 -126 -114 -92 18 30 138 216 165 255 15 22 31 51 35 65 4&#xA;14 22 48 41 75 23 34 39 75 51 130 9 44 23 88 31 97 13 16 12 25 -6 80 -26 80&#xA;-37 155 -25 171 6 6 13 25 17 41 4 16 18 42 31 58 28 33 63 124 67 170 1 21&#xA;-9 52 -26 84 -20 37 -27 62 -24 90 3 38 5 35 50 -71 38 -91 45 -118 41 -152&#xA;-6 -47 8 -58 28 -22 9 17 13 19 20 8 5 -8 9 -24 9 -36 0 -12 7 -26 16 -31 9&#xA;-5 20 -31 25 -59 9 -49 73 -183 88 -183 4 0 16 9 25 19 15 17 17 35 15 115&#xA;l-4 96 35 18 c47 23 60 71 38 139 -13 40 -14 52 -2 74 12 25 14 25 63 15 63&#xA;-12 72 -5 79 63 l5 51 48 -44 c50 -45 123 -76 259 -111 76 -19 80 -22 144&#xA;-100 124 -151 171 -190 381 -320 197 -121 221 -134 321 -170 54 -20 111 -43&#xA;127 -53 28 -16 30 -20 31 -94 0 -43 -2 -78 -5 -78 -4 0 -22 6 -40 14 -64 26&#xA;-76 27 -93 11 -21 -22 -20 -28 8 -56 70 -71 127 -147 136 -179 5 -20 23 -51&#xA;40 -68 22 -23 30 -42 30 -67 0 -27 10 -46 45 -85 25 -28 45 -58 45 -68 0 -27&#xA;36 -79 66 -94 15 -7 39 -36 56 -68 34 -65 44 -72 84 -65 24 4 35 0 54 -20 38&#xA;-40 118 -88 136 -81 22 9 12 58 -28 131 -28 53 -30 61 -19 91 10 28 9 37 -5&#xA;59 -9 14 -22 25 -29 25 -18 0 -173 160 -206 214 -21 34 -35 46 -53 46 -18 0&#xA;-34 16 -72 74 -51 77 -74 94 -74 52 0 -22 87 -167 108 -180 6 -3 39 -56 74&#xA;-116 34 -60 66 -110 71 -110 4 0 7 11 7 25 0 26 -13 56 -39 88 -8 9 -11 20 -6&#xA;25 4 4 10 1 13 -7 6 -17 112 -135 127 -140 26 -10 34 -23 23 -40 -8 -14 -3&#xA;-32 27 -90 21 -39 35 -74 33 -76 -2 -3 -28 16 -58 41 -44 37 -58 44 -81 39&#xA;-25 -6 -29 -2 -47 38 -11 24 -36 56 -55 71 -19 15 -43 45 -52 68 -8 22 -33 61&#xA;-54 87 -21 25 -41 57 -44 71 -4 14 -19 46 -36 70 -16 25 -34 63 -40 85 -7 24&#xA;-32 64 -67 103 -30 34 -53 62 -50 62 3 0 24 -7 46 -16 60 -24 70 -16 70 58 1&#xA;59 2 62 16 43 8 -11 28 -45 45 -75 119 -223 381 -453 719 -632 104 -55 127&#xA;-63 266 -88 61 -11 141 -29 178 -41 60 -18 75 -28 130 -87 124 -134 203 -208&#xA;286 -269 138 -101 128 -91 108 -103 -24 -14 -23 -28 4 -49 18 -15 19 -18 5&#xA;-24 -12 -5 -22 5 -37 41 -26 58 -54 88 -88 97 -15 3 -39 18 -54 32 -15 14 -51&#xA;42 -79 62 -36 25 -55 47 -63 71 -14 45 -48 51 -96 17 -34 -23 -35 -25 -32 -87&#xA;1 -43 9 -78 24 -105 12 -22 35 -66 52 -98 17 -31 38 -60 48 -63 13 -4 18 -16&#xA;18 -44 0 -22 10 -56 25 -81 14 -24 25 -49 25 -55 0 -19 -70 -25 -94 -9 -11 8&#xA;-31 15 -43 15 -12 0 -42 9 -65 19 -64 28 -124 44 -142 38 -9 -4 -21 -18 -28&#xA;-32 -11 -24 -8 -29 23 -59 19 -19 75 -55 124 -81 50 -26 100 -54 112 -62 34&#xA;-22 43 -8 43 69 l0 70 28 -6 c135 -30 158 -17 148 82 -4 36 -20 96 -36 135&#xA;-17 38 -30 73 -30 78 0 9 55 -17 92 -43 24 -17 33 -4 22 34 -9 29 -15 34 -51&#xA;39 -29 3 -54 16 -82 42 -38 34 -71 48 -71 30 0 -4 11 -30 25 -58 30 -63 95&#xA;-228 91 -233 -2 -1 -16 0 -31 4 -28 7 -45 37 -45 81 0 15 -29 69 -70 130 -73&#xA;110 -85 139 -50 128 19 -6 20 -3 14 52 -5 48 -4 56 7 46 7 -7 18 -27 23 -44 7&#xA;-19 24 -39 41 -48 96 -51 198 -126 208 -152 6 -15 21 -33 33 -40 12 -6 30 -31&#xA;39 -55 16 -41 19 -44 64 -50 60 -8 121 -60 121 -104 0 -22 14 -40 65 -85 84&#xA;-74 100 -70 92 18 -3 34 -13 79 -22 100 l-16 38 67 -7 67 -7 -7 38 c-7 37 -7&#xA;37 21 31 88 -22 207 -116 217 -173 4 -26 2 -31 -10 -26 -21 8 -35 -16 -24 -38&#xA;5 -9 25 -26 44 -37 24 -14 36 -29 38 -48 2 -22 20 -40 78 -82 90 -64 147 -95&#xA;160 -87 17 11 11 48 -15 94 l-25 43 24 -6 c15 -4 28 0 36 9 7 8 16 15 20 15 4&#xA;0 57 -33 116 -74 123 -83 189 -119 253 -136 24 -6 41 -13 40 -15 -2 -2 -35 -8&#xA;-74 -13 -53 -8 -87 -20 -140 -51 -38 -23 -77 -41 -85 -41 -20 0 -60 -36 -60&#xA;-54 0 -12 -21 -25 -65 -42 -11 -4 -49 -18 -85 -31 -36 -13 -92 -29 -125 -35&#xA;-33 -6 -70 -19 -83 -29 -13 -10 -61 -36 -108 -59 -46 -22 -84 -45 -84 -50 0&#xA;-18 35 -28 161 -45 125 -17 126 -17 168 4 40 21 44 21 116 6 105 -21 129 -20&#xA;167 13 18 16 49 39 68 52 19 13 47 37 61 54 24 28 27 29 57 17 18 -8 32 -20&#xA;32 -28 0 -8 14 -28 32 -45 19 -18 34 -43 37 -64 5 -31 14 -40 61 -65 56 -31&#xA;69 -32 168 -13 28 5 39 2 65 -23 18 -17 54 -38 80 -46 27 -9 69 -34 95 -55 51&#xA;-43 102 -72 126 -72 8 0 27 -11 43 -23 72 -60 317 -167 337 -147 13 13 -10 38&#xA;-45 45 -16 4 -31 11 -35 16 -3 5 -20 16 -37 24 -18 8 -48 24 -67 35 -19 11&#xA;-44 20 -56 20 -11 0 -38 16 -60 35 -23 21 -54 38 -76 41 -23 4 -60 25 -99 56&#xA;-33 27 -79 56 -101 64 -21 7 -58 27 -82 44 -46 33 -51 34 -141 25 -80 -8 -128&#xA;15 -133 66 -5 43 -17 58 -69 81 -51 22 -54 37 -13 60 20 11 33 30 42 60 14 48&#xA;29 70 75 111 l31 29 88 -35 c49 -19 115 -38 148 -42 61 -7 60 -7 134 -88 22&#xA;-24 45 -38 70 -43 25 -4 53 -22 87 -54 28 -26 84 -67 125 -90 41 -23 82 -48&#xA;90 -55 8 -7 33 -22 56 -33 22 -11 47 -28 55 -38 21 -26 86 -64 109 -64 27 0&#xA;25 26 -2 41 -13 7 -39 25 -58 41 -46 38 -193 133 -252 164 -26 13 -68 44 -94&#xA;69 -31 30 -61 49 -90 56 -34 9 -54 23 -89 64 -42 50 -50 54 -123 71 -42 10&#xA;-108 31 -146 46 -38 15 -77 28 -88 28 -36 0 -90 -30 -133 -75 -29 -29 -53 -45&#xA;-69 -45 -24 0 -86 -49 -86 -69 0 -6 2 -11 5 -11 11 0 70 32 88 48 21 19 31 10&#xA;23 -20 -7 -29 -49 -49 -86 -42 -29 6 -69 -22 -71 -48 -1 -19 -127 -108 -152&#xA;-108 -12 0 -57 5 -99 12 -70 10 -81 9 -131 -10 -43 -16 -63 -19 -93 -11 -22 4&#xA;-59 9 -83 9 -27 0 -41 4 -35 9 13 13 153 71 171 71 8 0 65 20 126 44 128 49&#xA;183 66 221 66 16 0 26 6 26 14 0 16 -21 26 -56 26 -34 0 -21 17 19 25 17 4 59&#xA;22 93 40 37 20 89 37 135 45 40 7 99 21 129 31 48 16 68 17 151 8 131 -13 143&#xA;-18 255 -94 136 -92 193 -119 355 -166 77 -22 175 -54 217 -70 176 -70 555&#xA;-185 573 -173 5 3 9 14 9 24 0 14 -11 22 -42 30 -132 34 -367 108 -464 145&#xA;-61 24 -180 65 -265 90 -179 55 -226 75 -334 148 -152 101 -140 97 -317 117&#xA;-243 29 -282 43 -488 185 -58 39 -127 82 -155 95 -27 12 -77 35 -110 50 -35&#xA;16 -93 58 -139 99 -119 108 -153 126 -345 187 -278 88 -423 176 -606 365 -145&#xA;150 -177 180 -214 195 -49 20 -141 43 -258 64 -84 15 -122 29 -221 78 -318&#xA;159 -559 372 -712 628 -34 58 -74 119 -87 135 -31 36 -91 67 -200 103 -45 15&#xA;-121 52 -169 82 -48 30 -135 84 -194 119 -131 79 -186 128 -291 256 -89 108&#xA;-80 103 -274 161 -109 32 -111 33 -190 109 -63 61 -93 81 -143 99 -52 19 -74&#xA;35 -130 95 -37 39 -77 77 -90 84 -12 6 -84 16 -160 22 -75 5 -166 13 -202 19&#xA;-108 16 -172 13 -221 -12z m792 -262 c65 -18 87 -37 65 -55 -10 -8 -12 -24 -9&#xA;-51 6 -44 -4 -50 -52 -28 -32 14 -53 -3 -65 -53 l-7 -34 -22 48 c-11 27 -21&#xA;57 -21 66 0 10 -9 26 -20 36 -17 15 -19 26 -14 65 5 36 1 56 -15 88 -12 23&#xA;-21 45 -21 50 0 5 28 -19 63 -53 50 -50 73 -66 118 -79z m-189 -8 c-3 -26 2&#xA;-47 17 -73 11 -20 21 -42 21 -50 0 -8 18 -55 40 -105 45 -101 45 -134 1 -153&#xA;-39 -18 -42 -26 -36 -112 l6 -80 -26 40 c-13 22 -25 54 -25 71 0 19 -21 71&#xA;-50 125 -27 52 -55 104 -61 116 -10 20 -8 27 24 62 40 44 52 85 38 124 -10 25&#xA;-4 54 25 127 10 25 32 -51 26 -92z m-154 -28 c18 0 42 5 53 10 16 9 19 7 19&#xA;-15 0 -15 -11 -36 -25 -49 -16 -15 -21 -26 -14 -33 10 -10 2 -43 -11 -43 -10&#xA;0 -65 95 -75 130 -6 20 -5 23 6 13 7 -7 28 -13 47 -13z m-557 -246 c-6 -22&#xA;-24 -59 -41 -82 -16 -24 -53 -92 -82 -150 -49 -100 -53 -112 -54 -182 -1 -112&#xA;-1 -115 -38 -159 -19 -23 -51 -75 -71 -116 -42 -89 -63 -105 -212 -172 -118&#xA;-53 -205 -103 -331 -192 -42 -29 -81 -55 -87 -57 -6 -3 -19 11 -28 31 -9 19&#xA;-22 35 -29 34 -28 -1 -84 -48 -123 -105 -47 -68 -129 -119 -208 -130 -28 -4&#xA;-69 -20 -100 -40 -87 -56 -194 -104 -255 -115 -31 -6 -73 -17 -92 -26 -19 -9&#xA;-60 -24 -90 -34 -30 -10 -82 -27 -114 -38 -77 -27 -229 -30 -265 -5 -19 14&#xA;-38 16 -98 10 -74 -6 -75 -5 -103 24 -16 17 -38 30 -52 30 -21 0 -112 49 -104&#xA;57 1 2 40 8 85 14 108 13 160 34 301 119 125 76 138 81 278 110 50 11 111 29&#xA;134 40 23 11 43 20 45 20 13 0 -4 -26 -47 -73 -27 -30 -50 -60 -50 -66 0 -34&#xA;122 5 214 69 25 16 48 30 53 30 4 0 25 5 46 11 29 8 45 21 67 56 33 51 84 93&#xA;115 93 11 0 48 22 82 50 l61 50 -18 47 c-10 27 -21 56 -24 66 -8 25 -29 21&#xA;-90 -18 -30 -19 -58 -35 -61 -35 -9 0 -5 61 5 81 6 10 41 34 78 53 104 53 373&#xA;257 625 474 15 14 19 14 32 1 12 -12 13 -20 3 -45 -13 -37 -5 -64 19 -64 16 0&#xA;99 39 202 95 25 13 36 15 39 6 2 -7 17 0 39 19 19 17 63 44 97 60 39 19 97 61&#xA;156 115 51 47 95 83 97 81 3 -2 0 -21 -6 -42z m-322 -41 c-15 -39 -39 -63 -63&#xA;-63 -21 -1 -48 -14 -132 -62 -25 -16 -57 -28 -70 -28 -22 0 -23 2 -12 20 7 11&#xA;29 23 48 27 50 9 113 37 130 58 13 15 98 75 107 75 1 0 -2 -12 -8 -27z m-1085&#xA;-843 c12 0 46 16 76 35 l55 34 12 -27 c18 -40 16 -45 -22 -70 -25 -15 -43 -20&#xA;-61 -16 -21 5 -25 3 -22 -11 2 -12 -9 -25 -34 -39 -20 -11 -51 -41 -69 -66&#xA;-37 -52 -47 -60 -75 -60 -11 0 -57 -22 -102 -50 -45 -27 -82 -46 -82 -43 0 3&#xA;27 34 60 69 33 34 60 69 60 76 0 8 14 27 31 44 17 16 56 67 87 114 l57 84 3&#xA;-37 c3 -31 7 -37 26 -37z m-250 -194 c-7 -19 -34 -29 -34 -12 0 7 3 16 7 19&#xA;12 13 32 7 27 -7z m770 -211 c-4 -8 -13 -15 -21 -15 -13 0 -13 3 -3 15 7 8 16&#xA;15 21 15 5 0 6 -7 3 -15z m-86 -47 c-2 -6 -35 -31 -74 -54 -117 -73 -126 -48&#xA;-10 28 59 38 91 48 84 26z m5357 -748 c48 -17 85 -36 93 -49 13 -19 13 -21 -6&#xA;-21 -11 0 -39 7 -62 15 -65 23 -74 9 -40 -60 11 -23 24 -62 29 -89 l9 -47 -26&#xA;23 c-39 34 -51 51 -52 70 0 28 -66 94 -115 117 -44 21 -45 22 -45 71 l0 50 68&#xA;-27 c37 -14 103 -38 147 -53z m-445 -211 c0 -11 -36 6 -45 21 -3 6 -3 15 1 22&#xA;5 8 13 4 26 -11 10 -13 18 -27 18 -32z m-314 6 c27 -8 60 -15 74 -15 19 0 29&#xA;-10 43 -39 9 -20 17 -40 17 -44 0 -3 -28 7 -62 23 -35 17 -67 30 -73 30 -11 1&#xA;-65 46 -65 55 0 8 13 6 66 -10z m1232 -55 c33 -26 60 -40 142 -72 24 -10 24&#xA;-11 5 -18 -11 -5 -33 -9 -50 -10 l-30 -1 26 -22 c23 -19 59 -75 59 -91 0 -3&#xA;-31 16 -70 42 -57 38 -70 52 -70 73 0 15 -7 32 -15 39 -8 7 -15 20 -15 29 0 9&#xA;-7 27 -16 39 -21 30 -10 28 34 -8z m-9032 -619 c-51 -54 -192 -156 -285 -209&#xA;-45 -25 -182 -75 -188 -68 -2 2 20 20 49 41 29 21 64 46 78 56 14 11 55 34 92&#xA;53 37 19 88 51 112 71 36 29 142 83 165 85 3 0 -8 -13 -23 -29z m1361 -135&#xA;c32 -24 76 -53 98 -64 34 -17 98 -73 70 -61 -5 3 -21 10 -35 16 -14 6 -58 23&#xA;-98 38 -71 27 -92 45 -107 93 -9 32 6 28 72 -22z m-250 -143 c15 -11 45 -23&#xA;65 -26 41 -6 41 -6 131 -89 l62 -57 -70 6 c-49 4 -82 14 -109 30 -44 28 -122&#xA;63 -140 63 -7 0 -36 22 -65 48 l-53 48 76 -2 c56 -1 82 -7 103 -21z"></path>
<path d="M6558 6943 c-14 -16 -61 -80 -103 -143 -42 -63 -100 -136 -128 -162&#xA;-51 -46 -51 -47 -39 -81 18 -49 15 -64 -19 -120 -27 -44 -29 -51 -16 -65 14&#xA;-13 18 -12 42 6 14 12 43 26 63 33 61 19 72 35 72 101 0 59 0 60 58 118 l58&#xA;58 33 131 c38 156 34 182 -21 124z m-29 -135 c-4 -18 -11 -45 -14 -61 -3 -15&#xA;-32 -57 -65 -93 -53 -59 -60 -71 -60 -108 0 -44 -18 -79 -51 -97 -19 -10 -20&#xA;-9 -9 11 6 12 10 44 9 71 -3 46 0 52 38 92 22 23 66 81 97 130 32 48 59 87 61&#xA;87 2 0 -1 -15 -6 -32z"></path>
<path d="M7523 7117 c-20 -26 -73 -155 -73 -176 0 -12 -4 -30 -10 -40 -10 -19&#xA;8 -131 21 -131 19 0 27 32 26 100 -1 64 3 85 26 131 15 31 30 69 33 86 6 33&#xA;-8 51 -23 30z"></path>
<path d="M8363 6909 c-7 -7 -13 -34 -13 -60 0 -29 -6 -51 -15 -59 -11 -9 -15&#xA;-32 -15 -81 0 -58 -3 -72 -21 -87 -41 -34 -41 -47 -3 -118 l37 -66 -17 -72&#xA;c-9 -39 -16 -79 -16 -88 0 -19 53 -109 113 -191 38 -53 44 -79 27 -136 -15&#xA;-52 35 -161 109 -237 74 -76 197 -187 265 -238 30 -23 66 -55 80 -73 15 -18&#xA;42 -42 62 -53 19 -12 48 -42 65 -66 17 -25 58 -65 91 -89 41 -30 75 -66 101&#xA;-107 89 -141 199 -236 323 -278 65 -23 143 -72 209 -133 54 -50 51 -55 -15&#xA;-32 -76 27 -95 21 -174 -49 -39 -35 -81 -68 -93 -75 -27 -14 -73 -14 -108 -1&#xA;-30 11 -55 2 -95 -36 -14 -13 -46 -28 -70 -32 -25 -5 -62 -20 -82 -34 -21 -14&#xA;-68 -35 -106 -47 -69 -21 -98 -43 -125 -96 -23 -45 -82 -105 -104 -105 -25 0&#xA;-103 -51 -103 -67 0 -20 49 -15 77 7 14 11 38 20 53 20 31 0 72 40 116 115 27&#xA;47 73 78 159 105 22 7 56 24 75 36 19 13 44 24 55 24 11 0 44 15 73 34 49 31&#xA;57 33 115 29 48 -4 71 -1 96 12 35 17 139 99 156 121 8 10 19 11 50 3 22 -6&#xA;67 -16 100 -23 41 -8 82 -26 131 -58 80 -53 176 -98 208 -98 30 0 102 -63 125&#xA;-109 11 -20 33 -49 51 -66 17 -16 41 -46 53 -65 11 -19 39 -57 61 -83 39 -46&#xA;40 -51 38 -110 -3 -72 26 -196 64 -274 53 -110 236 -235 360 -246 42 -3 77&#xA;-14 116 -36 30 -17 95 -43 144 -57 115 -33 256 -116 337 -198 63 -62 93 -81&#xA;224 -136 77 -33 103 -37 103 -17 0 13 -59 57 -77 57 -34 0 -146 66 -203 120&#xA;-117 110 -267 198 -384 225 -37 9 -84 26 -104 39 -52 32 -89 44 -153 49 -98 9&#xA;-246 101 -301 187 -45 71 -78 188 -78 278 l0 76 -57 86 c-32 47 -78 107 -103&#xA;134 -25 27 -40 47 -35 44 33 -13 231 -115 350 -180 111 -61 168 -85 275 -117&#xA;74 -21 147 -44 161 -49 49 -19 243 -182 281 -237 48 -67 84 -89 178 -110 41&#xA;-10 95 -28 120 -42 25 -14 72 -29 105 -34 172 -24 207 -30 232 -41 15 -7 48&#xA;-13 73 -14 25 -1 73 -5 108 -9 65 -8 112 5 112 30 0 13 -93 25 -195 25 -35 0&#xA;-85 9 -119 21 -34 12 -70 18 -85 14 -15 -3 -43 1 -64 10 -20 8 -51 15 -69 15&#xA;-18 0 -58 13 -88 29 -30 16 -82 34 -115 41 -74 15 -127 43 -148 79 -21 37&#xA;-135 143 -220 207 -58 43 -90 58 -232 103 -156 50 -311 120 -430 196 -27 17&#xA;-66 37 -85 45 -46 18 -151 74 -225 121 -33 20 -97 52 -142 69 -111 42 -221&#xA;115 -324 216 -48 46 -92 84 -98 84 -6 0 -40 26 -75 58 -118 106 -178 153 -230&#xA;179 -28 14 -89 63 -136 109 -219 215 -295 287 -374 354 -47 39 -98 87 -113&#xA;107 -45 58 -74 83 -100 83 -30 0 -38 20 -24 63 10 30 9 42 -12 88 -13 30 -27&#xA;66 -30 81 -4 14 -23 47 -42 72 -19 26 -35 48 -35 50 0 1 -34 54 -76 117 -68&#xA;101 -75 117 -70 149 20 126 19 154 -8 208 l-26 51 25 37 c20 29 25 49 25 95 0&#xA;32 5 61 10 64 6 3 11 21 11 38 1 22 3 25 6 12 3 -11 14 -32 24 -47 11 -14 19&#xA;-38 19 -53 0 -35 36 -85 61 -85 23 0 27 48 4 56 -10 4 -15 20 -15 45 0 25 -5&#xA;42 -14 45 -13 5 -56 83 -56 100 0 3 18 -8 39 -25 40 -32 58 -29 47 7 -12 38&#xA;-119 76 -143 51z m192 -1042 c26 -71 32 -117 15 -117 -17 0 -76 143 -78 190&#xA;l-2 45 20 -25 c10 -14 31 -56 45 -93z m899 -945 c53 -40 96 -75 96 -78 0 -7&#xA;-38 14 -44 25 -3 5 -31 21 -61 36 -33 17 -71 47 -93 74 -42 52 -37 49 102 -57z"></path>
<path d="M8680 6731 c-12 -24 -13 -81 -1 -100 11 -18 31 -5 31 20 0 10 3 19 8&#xA;19 13 -1 118 -137 111 -145 -2 -2 -23 10 -47 26 -23 16 -56 29 -72 29 -17 0&#xA;-30 3 -30 8 0 4 -22 18 -49 31 -68 32 -104 24 -120 -28 -6 -21 -11 -46 -11&#xA;-56 0 -14 -3 -15 -15 -5 -18 15 -35 5 -35 -21 0 -10 -6 -19 -12 -19 -37 -1&#xA;-40 -16 -18 -79 23 -62 34 -70 71 -51 14 8 19 21 19 53 0 42 22 111 50 159&#xA;l16 27 37 -26 c20 -14 37 -30 37 -36 0 -5 15 -6 33 -3 25 5 40 1 58 -12 39&#xA;-31 110 -64 125 -58 30 12 8 98 -37 146 -13 14 -46 51 -73 83 -27 31 -52 57&#xA;-57 57 -5 0 -13 -9 -19 -19z"></path>
<path d="M6620 6269 c-36 -27 -88 -60 -117 -73 -43 -20 -55 -32 -72 -72 -19&#xA;-43 -20 -49 -6 -71 22 -33 32 -29 40 17 8 50 37 87 74 95 16 3 41 17 56 31 14&#xA;13 30 24 35 24 18 0 -4 -36 -59 -96 -31 -34 -64 -73 -74 -88 -14 -21 -102 -76&#xA;-120 -76 -2 0 -2 11 1 25 3 20 0 25 -17 25 -26 0 -81 -73 -81 -108 0 -23 3&#xA;-24 38 -20 38 6 156 71 200 112 13 11 31 35 39 51 8 17 32 46 53 65 40 37 119&#xA;177 112 198 -7 23 -37 12 -102 -39z"></path>
<path d="M8635 6029 c-20 -31 24 -150 69 -188 9 -7 16 -21 16 -30 0 -9 6 -25&#xA;14 -36 7 -11 16 -30 20 -42 11 -34 215 -233 239 -233 17 0 19 5 14 41 -3 22&#xA;-20 70 -38 105 -33 63 -33 65 -16 93 35 60 16 86 -98 141 -39 19 -87 54 -128&#xA;95 -66 66 -80 74 -92 54z m203 -195 c75 -38 93 -57 73 -77 -15 -15 -14 -53 4&#xA;-87 9 -17 20 -42 25 -57 l10 -28 -26 30 c-66 76 -96 105 -104 105 -6 0 -24 30&#xA;-40 67 -17 38 -41 79 -54 93 -25 26 -46 63 -46 77 1 4 20 -13 43 -39 27 -30&#xA;69 -61 115 -84z"></path>
<path d="M6886 5981 c-20 -22 -15 -51 8 -51 18 0 33 47 19 61 -6 6 -16 2 -27&#xA;-10z"></path>
<path d="M7526 5818 c-8 -13 -28 -52 -44 -88 -17 -36 -39 -74 -51 -84 -14 -13&#xA;-21 -31 -21 -55 0 -32 -7 -43 -57 -84 -35 -30 -64 -66 -78 -95 -12 -26 -34&#xA;-61 -49 -79 -14 -17 -37 -56 -50 -85 -23 -51 -57 -101 -173 -256 -27 -35 -85&#xA;-97 -130 -138 -78 -71 -87 -76 -145 -86 -55 -9 -69 -7 -110 11 -27 11 -48 25&#xA;-48 31 0 37 -121 25 -214 -20 -33 -17 -77 -30 -96 -30 -20 0 -44 -6 -55 -14&#xA;-44 -31 -157 -85 -188 -91 -19 -4 -60 0 -94 9 -103 27 -167 22 -253 -20 -222&#xA;-108 -340 -181 -340 -210 0 -17 33 -23 167 -31 109 -5 125 -4 150 12 21 14 44&#xA;19 93 17 55 -1 72 -6 110 -34 59 -41 136 -49 193 -19 38 19 39 19 70 1 19 -11&#xA;65 -22 115 -27 l83 -8 -83 -61 c-134 -100 -188 -112 -310 -74 -76 24 -117 25&#xA;-165 5 -30 -13 -43 -13 -65 -4 -41 17 -34 28 12 22 23 -3 40 -1 40 4 0 16 -35&#xA;43 -55 43 -10 0 -34 5 -55 11 -30 9 -43 8 -68 -5 -38 -20 -41 -43 -7 -52 14&#xA;-3 52 -24 86 -45 33 -22 66 -39 74 -39 8 0 35 10 60 22 46 22 46 22 93 4 128&#xA;-50 218 -46 312 15 85 55 190 140 190 155 0 25 -36 39 -113 45 -68 5 -83 9&#xA;-95 27 -19 29 -94 30 -137 2 -55 -36 -128 -19 -192 46 -19 19 -149 19 -183 -1&#xA;-17 -10 -58 -14 -130 -15 l-105 0 45 26 c25 15 61 37 80 49 19 13 58 31 85 40&#xA;28 10 65 29 83 43 31 23 40 24 115 18 206 -15 208 -15 316 -68 97 -47 105 -49&#xA;145 -39 68 17 112 38 159 78 25 21 57 46 71 56 17 12 26 27 26 45 0 45 13 56&#xA;48 44 17 -6 49 -8 71 -5 27 4 41 2 41 -6 0 -21 -64 -51 -107 -51 -49 0 -53 -7&#xA;-16 -34 40 -30 76 -24 122 17 22 20 55 43 73 53 93 47 286 242 335 337 9 18&#xA;29 47 44 65 16 18 43 61 60 95 18 34 45 78 60 99 16 20 36 51 43 70 8 18 31&#xA;49 51 68 21 19 46 49 56 65 l19 30 0 -35 c-1 -55 -17 -110 -39 -134 -12 -13&#xA;-29 -48 -38 -80 -15 -52 -15 -58 0 -74 37 -40 32 -71 -30 -182 -40 -72 -58&#xA;-116 -57 -140 0 -55 9 -70 44 -70 28 0 31 2 24 23 -18 52 -10 92 33 184 24 51&#xA;48 95 54 98 14 9 11 52 -8 111 l-16 53 36 53 c41 59 47 102 25 183 -12 43 -11&#xA;48 27 125 21 44 40 78 43 76 2 -2 -1 -37 -7 -77 l-10 -73 35 -40 c19 -23 52&#xA;-61 73 -86 111 -128 105 -117 102 -177 -1 -31 -10 -67 -18 -80 -20 -31 -12&#xA;-84 22 -132 14 -21 25 -44 25 -53 0 -9 17 -34 37 -55 21 -21 43 -51 49 -68 6&#xA;-18 19 -31 31 -33 22 -3 86 -73 122 -133 32 -53 25 -56 -18 -8 -30 33 -42 41&#xA;-51 33 -18 -18 9 -62 70 -113 l52 -44 21 21 21 21 -38 76 c-21 42 -44 79 -52&#xA;82 -8 3 -14 11 -14 19 0 7 -19 32 -42 56 -23 24 -53 58 -66 77 -13 19 -34 43&#xA;-47 53 -26 21 -69 92 -79 132 -5 20 0 38 15 62 21 34 22 60 4 107 -14 34 19&#xA;17 71 -38 43 -45 59 -56 95 -61 24 -3 53 -12 64 -19 37 -23 79 -26 130 -10 81&#xA;24 90 21 137 -42 78 -107 120 -153 136 -153 32 -1 62 -34 70 -80 6 -32 21 -58&#xA;49 -89 34 -37 45 -43 69 -38 40 7 88 -17 125 -64 23 -29 38 -39 59 -39 16 0&#xA;49 -6 72 -14 54 -18 135 -29 148 -21 15 9 -15 60 -66 115 -24 26 -55 67 -67&#xA;91 -17 32 -36 51 -72 69 -41 21 -51 31 -56 60 -8 39 -39 67 -102 91 -34 13&#xA;-52 31 -97 97 -56 82 -107 142 -122 142 -4 0 -22 -13 -41 -30 -52 -46 -77 -51&#xA;-146 -34 -58 15 -62 15 -95 -5 -42 -26 -83 -26 -116 -1 -14 11 -40 20 -58 20&#xA;-26 0 -42 9 -74 45 -23 25 -59 51 -84 61 -24 9 -44 21 -44 25 0 5 -30 40 -67&#xA;78 -127 131 -124 124 -117 232 8 128 -14 182 -50 127z m974 -688 c46 -69 57&#xA;-81 108 -103 63 -27 75 -38 89 -82 6 -20 28 -43 66 -68 36 -24 59 -47 63 -63&#xA;4 -14 29 -46 55 -71 27 -25 47 -48 45 -51 -3 -2 -36 1 -73 8 -57 10 -75 19&#xA;-108 51 -42 40 -99 69 -135 69 -31 0 -76 49 -84 92 -8 45 -36 82 -76 98 -17 7&#xA;-58 47 -95 94 l-65 81 36 8 c20 4 47 16 62 27 23 19 26 19 43 4 10 -9 41 -51&#xA;69 -94z m-1995 -350 c-3 -5 0 -19 7 -30 12 -19 10 -24 -19 -48 -159 -134 -219&#xA;-153 -328 -106 -36 16 -65 31 -65 35 0 12 144 77 183 82 21 3 63 18 95 33 83&#xA;40 140 55 127 34z"></path>
<path d="M9195 5818 c-2 -7 -6 -31 -9 -53 -3 -22 -8 -54 -11 -71 -6 -26 1 -40&#xA;45 -100 70 -93 110 -134 132 -134 15 0 18 9 18 56 0 30 -5 65 -12 77 -6 12&#xA;-11 36 -10 53 1 25 -12 47 -64 108 -65 76 -81 87 -89 64z m108 -183 c2 -16 9&#xA;-45 15 -62 13 -42 3 -42 -25 0 -13 17 -34 46 -48 64 -22 26 -25 37 -19 68 l7&#xA;38 32 -39 c18 -22 35 -52 38 -69z"></path>
<path d="M9646 5554 c-3 -9 -6 -53 -6 -99 0 -60 -5 -92 -17 -113 -16 -29 -16&#xA;-30 15 -78 59 -92 86 -124 104 -124 10 0 18 4 18 9 0 20 39 20 82 1 45 -20 68&#xA;-53 68 -100 0 -9 14 -29 30 -45 17 -16 30 -36 30 -45 0 -15 113 -114 143 -126&#xA;25 -9 40 23 32 69 -9 55 -16 177 -9 177 3 0 22 -13 42 -29 47 -38 92 -46 92&#xA;-17 0 8 6 21 14 28 20 21 53 88 61 128 9 44 71 110 103 110 13 0 49 -7 80 -16&#xA;l56 -17 23 29 c45 56 42 92 -5 58 -41 -31 -59 -34 -94 -20 -72 29 -73 29 -132&#xA;-18 l-55 -46 -67 21 c-36 11 -69 18 -72 14 -3 -3 1 -18 10 -33 14 -23 25 -28&#xA;72 -32 30 -3 58 -9 62 -13 5 -4 -5 -19 -21 -32 -24 -19 -37 -23 -64 -18 l-34&#xA;6 5 -52 c3 -28 1 -51 -4 -51 -5 0 -28 20 -52 45 -42 42 -66 56 -66 37 0 -5 9&#xA;-17 20 -27 22 -20 27 -49 8 -43 -11 4 -21 20 -48 78 -4 8 -15 16 -24 18 -12 3&#xA;-16 -4 -16 -28 0 -34 23 -75 57 -103 20 -16 21 -20 8 -33 -18 -19 -18 -37 -1&#xA;-86 8 -21 12 -38 9 -38 -11 0 -83 65 -83 75 0 7 -14 29 -30 50 -17 21 -40 59&#xA;-51 83 -22 51 -42 68 -116 98 -47 19 -53 20 -68 5 -14 -12 -18 -13 -22 -3 -3&#xA;7 -20 36 -39 63 -19 28 -34 53 -34 55 0 2 9 4 21 4 20 0 21 3 14 73 l-7 72 36&#xA;-60 c41 -68 67 -92 105 -101 14 -4 53 -36 87 -71 75 -80 99 -82 99 -10 0 46 1&#xA;48 25 42 14 -4 28 -13 32 -20 5 -7 17 -11 28 -8 14 4 29 -5 50 -27 27 -29 50&#xA;-33 50 -8 0 5 -14 23 -31 39 -28 26 -30 33 -21 54 10 21 8 25 -23 39 -18 9&#xA;-42 16 -52 16 -19 0 -82 -59 -100 -93 -9 -17 -14 -13 -46 31 -29 42 -42 51&#xA;-76 57 -36 6 -43 12 -72 63 -45 81 -98 152 -114 152 -7 0 -16 -7 -19 -16z&#xA;m620 -451 c-4 -4 -11 -1 -16 7 -16 25 -11 35 7 17 9 -9 13 -20 9 -24z"></path>
<path d="M4057 5479 c-4 -62 -10 -88 -26 -108 -12 -14 -28 -38 -36 -53 -13&#xA;-24 -13 -28 -1 -28 21 0 74 47 91 81 26 50 16 189 -14 189 -4 0 -11 -37 -14&#xA;-81z"></path>
<path d="M6458 5487 c-23 -30 -69 -72 -101 -92 -39 -26 -59 -46 -63 -64 -8&#xA;-42 -18 -55 -60 -78 -52 -28 -74 -52 -81 -86 -3 -16 -21 -40 -40 -54 -41 -32&#xA;-165 -202 -156 -216 8 -14 87 -1 135 23 23 11 49 20 58 20 9 0 25 9 36 21 10&#xA;11 42 32 70 45 68 32 144 113 144 153 0 24 12 40 61 83 77 67 84 79 62 117&#xA;-16 26 -16 35 -4 78 33 113 7 134 -61 50z m10 -84 c-1 -21 1 -48 6 -60 5 -17&#xA;1 -27 -21 -45 -63 -51 -103 -100 -103 -123 0 -32 -59 -98 -108 -120 -20 -10&#xA;-52 -28 -70 -42 -38 -29 -121 -67 -129 -59 -7 7 93 121 123 141 13 8 24 25 24&#xA;36 0 35 18 56 74 88 46 26 57 37 67 71 10 32 22 47 56 67 24 13 51 38 60 54&#xA;10 16 19 29 20 29 2 0 2 -17 1 -37z"></path>
<path d="M3550 5384 l-65 -37 -100 6 -100 6 -71 -75 c-40 -43 -98 -91 -134&#xA;-112 -54 -31 -65 -43 -71 -71 -4 -20 -25 -52 -53 -80 -25 -26 -46 -53 -46 -60&#xA;0 -22 112 -4 183 30 34 16 68 29 74 29 7 0 35 14 61 30 27 17 54 30 59 30 17&#xA;0 75 80 69 96 -10 25 -41 15 -82 -28 -22 -24 -51 -48 -64 -55 -14 -6 -59 -27&#xA;-101 -47 -77 -36 -132 -49 -98 -23 9 7 28 31 43 55 15 24 48 56 76 73 28 17&#xA;76 60 108 95 l59 65 82 2 c79 2 81 1 61 -15 -26 -21 -16 -42 16 -34 35 9 205&#xA;127 201 140 -7 22 -44 15 -107 -20z"></path>
<path d="M7940 5151 c0 -10 7 -25 16 -32 9 -8 27 -30 41 -49 64 -95 101 -132&#xA;166 -165 64 -32 68 -32 77 -14 13 23 4 42 -45 89 -32 30 -39 33 -57 21 -17&#xA;-10 -22 -10 -34 6 -7 10 -14 23 -14 29 0 17 -117 134 -134 134 -9 0 -16 -8&#xA;-16 -19z"></path>
<path d="M7443 5125 c-3 -9 -3 -29 1 -45 4 -21 -2 -44 -20 -77 -24 -45 -25&#xA;-54 -19 -133 10 -125 11 -122 -37 -196 -25 -38 -54 -87 -66 -109 -26 -53 -155&#xA;-195 -212 -236 -25 -18 -66 -51 -91 -75 -25 -23 -66 -52 -90 -64 -24 -12 -74&#xA;-50 -110 -84 -125 -116 -180 -161 -237 -194 -31 -19 -70 -46 -87 -61 -16 -15&#xA;-48 -35 -70 -45 -21 -10 -55 -30 -75 -45 -19 -16 -87 -46 -151 -68 -64 -22&#xA;-126 -47 -140 -56 -13 -9 -28 -17 -34 -17 -6 0 -44 -21 -85 -46 -41 -25 -96&#xA;-57 -122 -70 -75 -38 -61 -69 23 -54 24 4 96 11 159 15 81 5 144 16 214 36&#xA;106 31 153 31 136 -1 -15 -27 -13 -30 21 -30 79 0 243 67 309 125 34 30 64 45&#xA;92 45 13 0 41 12 62 26 21 14 60 36 86 47 71 32 156 147 166 223 3 30 3 66 0&#xA;82 -19 76 -19 79 30 171 26 50 56 98 65 107 17 16 137 69 226 101 l42 15 60&#xA;-39 c32 -22 78 -43 100 -47 36 -5 44 -12 59 -44 9 -20 36 -62 59 -92 83 -108&#xA;93 -112 113 -47 15 50 15 113 0 151 -8 23 -7 33 10 56 12 16 34 39 50 50 l30&#xA;21 62 -33 c51 -27 67 -41 85 -78 13 -26 22 -65 23 -91 0 -37 8 -59 35 -99 42&#xA;-62 43 -76 10 -120 -31 -42 -31 -62 -3 -108 20 -32 20 -38 8 -85 -12 -48 -12&#xA;-51 11 -69 13 -10 53 -34 89 -52 94 -47 108 -57 135 -96 18 -26 55 -50 137&#xA;-92 112 -56 208 -98 226 -98 23 0 20 37 -9 106 -21 51 -29 84 -26 103 6 30&#xA;-11 53 -56 75 -14 7 -23 22 -25 41 -5 63 -12 71 -102 129 -49 33 -90 65 -90&#xA;73 0 17 -49 91 -79 117 -11 11 -21 25 -21 32 0 13 -70 87 -157 167 -30 28 -54&#xA;59 -58 76 -8 36 -61 86 -138 130 -81 46 -102 41 -155 -39 l-43 -65 6 -80 6&#xA;-80 -37 44 c-21 24 -45 58 -53 75 -18 35 -74 76 -105 76 -12 0 -39 11 -61 25&#xA;-103 63 -90 62 -200 16 -55 -22 -100 -39 -101 -38 -1 1 22 31 52 66 30 35 69&#xA;91 86 125 16 33 41 76 55 93 44 59 53 91 37 136 -22 62 -18 130 11 187 34 67&#xA;33 150 -1 150 -8 0 -17 -7 -21 -15z m-395 -927 c-25 -35 -51 -78 -58 -96 -12&#xA;-30 -11 -34 14 -57 25 -23 26 -29 20 -77 -3 -29 -14 -64 -23 -77 -9 -13 -27&#xA;-42 -41 -65 -14 -22 -39 -48 -55 -56 -17 -8 -52 -28 -79 -43 -27 -15 -69 -32&#xA;-92 -38 -23 -6 -66 -29 -96 -51 -63 -47 -179 -108 -207 -108 -11 0 -24 7 -29&#xA;16 -8 14 -22 16 -88 11 -44 -3 -90 -9 -104 -13 -17 -5 -22 -4 -15 4 16 17 312&#xA;167 390 198 77 31 155 101 181 163 17 41 17 41 0 41 -7 0 -28 -16 -47 -36 -87&#xA;-92 -109 -112 -134 -118 -67 -17 -404 -198 -460 -247 -11 -9 -40 -19 -65 -22&#xA;-25 -3 -72 -10 -105 -16 -33 -5 -61 -9 -62 -7 -3 3 89 54 177 97 30 15 96 41&#xA;146 58 83 28 276 133 329 180 11 10 37 27 58 39 44 25 112 80 206 167 36 34&#xA;84 73 106 87 22 14 69 51 104 82 36 31 66 54 69 52 2 -3 -16 -33 -40 -68z&#xA;m1145 -45 c97 -102 158 -182 168 -218 6 -20 24 -45 44 -61 28 -21 35 -33 35&#xA;-62 0 -43 24 -72 59 -72 18 0 44 -17 84 -54 50 -48 57 -59 57 -93 0 -22 9 -57&#xA;19 -79 11 -21 18 -40 17 -41 -1 -2 -29 8 -62 20 -75 30 -197 108 -234 151 -16&#xA;18 -69 54 -119 80 l-89 48 5 59 c4 34 1 64 -5 71 -19 24 -17 53 7 102 l24 49&#xA;-36 71 c-55 106 -51 110 26 29z m334 -357 c21 -19 25 -27 16 -37 -9 -9 -17 -6&#xA;-37 14 -46 46 -28 65 21 23z"></path>
<path d="M2730 5115 c-31 -6 -112 -33 -181 -58 -69 -26 -129 -47 -133 -47 -5&#xA;0 -43 -18 -86 -40 -48 -23 -112 -46 -162 -56 -46 -9 -91 -21 -100 -26 -25 -12&#xA;-22 -47 5 -58 12 -5 40 -16 61 -25 l39 -15 -28 -30 c-16 -17 -54 -39 -84 -51&#xA;-70 -26 -261 -169 -261 -196 0 -16 49 -22 100 -13 51 10 67 15 127 42 29 12&#xA;55 16 80 13 67 -11 229 62 368 165 74 54 82 66 61 89 -13 15 -24 17 -45 11&#xA;-33 -9 -179 0 -160 10 8 4 52 15 99 25 88 17 116 34 270 159 25 20 62 50 83&#xA;67 61 50 50 57 -53 34z m-66 -73 c-98 -80 -166 -119 -264 -152 -103 -34 -109&#xA;-39 -132 -91 -2 -3 -16 -9 -32 -13 -26 -6 -28 -5 -17 8 15 18 7 36 -17 36 -9&#xA;1 -28 7 -42 14 l-25 14 40 7 c22 4 103 34 180 65 77 32 149 62 160 66 11 4 52&#xA;20 90 35 85 32 85 32 59 11z m-221 -263 c15 1 27 -1 27 -3 0 -11 -107 -78&#xA;-199 -125 -92 -45 -110 -51 -160 -49 -42 1 -67 -4 -101 -22 -42 -21 -110 -43&#xA;-110 -34 0 9 149 112 180 124 19 8 53 26 76 41 23 16 49 26 60 23 10 -2 46 9&#xA;79 26 45 23 67 29 90 24 17 -3 42 -6 58 -5z"></path>
<path d="M7617 5083 c-2 -4 0 -39 5 -78 7 -51 17 -80 39 -109 16 -22 36 -66&#xA;45 -98 12 -43 25 -65 47 -81 16 -12 44 -37 61 -56 122 -131 441 -438 472 -454&#xA;16 -8 47 -18 70 -21 29 -5 52 -19 80 -47 21 -21 42 -39 47 -39 6 0 33 -19 61&#xA;-43 28 -24 72 -55 99 -71 26 -15 54 -37 62 -50 9 -13 37 -35 63 -49 26 -14 61&#xA;-40 77 -58 17 -17 55 -48 85 -68 30 -20 71 -48 90 -62 36 -26 117 -60 205 -84&#xA;74 -20 137 -49 188 -87 25 -18 69 -50 98 -70 l53 -38 -36 0 c-45 0 -68 -8 -68&#xA;-25 0 -15 45 -25 116 -25 43 0 54 3 54 16 0 25 -76 103 -145 150 -33 23 -66&#xA;49 -74 58 -7 9 -39 23 -70 32 -31 9 -60 20 -66 24 -5 5 -48 20 -95 34 -50 15&#xA;-114 44 -155 71 -39 25 -75 45 -82 45 -6 0 -28 20 -48 44 -20 24 -55 53 -78&#xA;64 -23 11 -60 39 -82 62 -22 23 -61 53 -87 66 -26 13 -54 34 -62 46 -9 13 -29&#xA;32 -45 43 -16 11 -49 37 -73 57 -31 26 -65 43 -109 54 -67 17 -69 18 -238 184&#xA;-31 30 -77 73 -102 95 -26 22 -77 75 -114 118 -37 42 -85 87 -106 99 -36 20&#xA;-39 25 -39 64 0 34 -8 52 -44 98 -41 53 -43 59 -34 92 7 28 6 41 -9 67 -19 31&#xA;-46 46 -56 30z"></path>
<path d="M4995 5047 c-58 -23 -145 -79 -198 -127 -38 -35 -67 -52 -99 -59 -72&#xA;-16 -98 -29 -151 -73 -49 -41 -49 -42 -29 -59 13 -10 50 -19 94 -23 127 -12&#xA;148 -17 148 -35 0 -9 7 -27 16 -40 16 -22 20 -23 108 -16 91 7 163 29 219 67&#xA;31 22 34 44 10 87 -24 42 -24 42 127 81 27 7 62 32 115 82 41 40 75 78 75 85&#xA;0 28 -43 35 -151 24 -85 -8 -112 -8 -144 4 -48 17 -99 18 -140 2z m112 -43&#xA;c40 -12 83 -15 148 -12 l93 4 -37 -43 c-24 -29 -49 -46 -76 -53 -90 -24 -157&#xA;-54 -172 -77 -15 -22 -15 -27 0 -59 l17 -34 -41 -27 c-38 -25 -98 -40 -183&#xA;-46 -40 -3 -45 21 -8 34 32 11 49 36 34 51 -13 13 -59 -8 -72 -32 -11 -21 -12&#xA;-21 -46 10 -32 27 -41 30 -104 30 -39 0 -70 4 -70 8 0 13 57 39 120 56 39 11&#xA;74 31 118 68 49 42 202 137 220 138 2 0 29 -7 59 -16z"></path>
<path d="M3459 4886 c-14 -7 -57 -23 -94 -35 -38 -12 -87 -35 -109 -50 -23&#xA;-16 -61 -37 -86 -48 -48 -21 -180 -105 -233 -148 -78 -63 -174 -128 -231 -157&#xA;-33 -17 -80 -43 -102 -59 -48 -32 -146 -71 -254 -100 -41 -11 -107 -33 -146&#xA;-49 -67 -27 -79 -28 -239 -29 -204 -1 -283 -17 -447 -92 -62 -28 -143 -62&#xA;-180 -74 -37 -13 -129 -53 -205 -88 -153 -72 -234 -99 -368 -122 -172 -29&#xA;-418 -109 -423 -138 -6 -33 28 -28 175 22 81 27 180 55 218 61 170 27 276 60&#xA;408 127 82 41 451 194 542 225 37 12 108 23 186 28 69 5 139 12 155 15 26 6&#xA;27 5 12 -8 -10 -8 -18 -19 -18 -25 0 -28 14 -24 200 56 14 6 90 29 170 51 199&#xA;57 225 66 225 81 0 7 38 35 85 61 84 47 203 127 350 235 41 30 95 64 120 76&#xA;25 12 68 35 95 52 28 17 67 39 88 48 l37 18 0 -30 c0 -17 2 -30 5 -30 3 0 31&#xA;25 62 55 37 36 54 59 50 70 -8 18 -15 19 -48 1z"></path>
<path d="M10517 4534 c-11 -11 13 -46 76 -111 32 -34 66 -76 75 -94 12 -23 27&#xA;-36 49 -41 20 -5 38 -19 47 -36 38 -73 120 -124 284 -177 59 -19 107 -45 192&#xA;-105 119 -84 139 -92 425 -175 110 -32 122 -36 211 -73 39 -17 116 -42 170&#xA;-57 54 -15 120 -34 145 -41 25 -8 79 -19 120 -24 41 -5 95 -13 122 -16 l47 -7&#xA;-40 -34 c-39 -34 -52 -63 -27 -63 6 0 43 21 81 45 38 25 78 45 88 45 10 0 74&#xA;-17 141 -39 67 -21 178 -53 247 -70 69 -17 163 -42 209 -56 100 -30 191 -43&#xA;191 -27 0 6 -8 15 -17 20 -31 16 -292 93 -418 124 -66 15 -165 44 -220 62 -75&#xA;26 -116 34 -165 34 -135 -1 -474 77 -672 155 -83 33 -146 53 -365 116 -124 36&#xA;-143 46 -263 131 -88 62 -240 133 -335 156 -18 4 -50 30 -80 62 -27 30 -92 98&#xA;-143 150 -51 52 -91 96 -90 97 4 3 139 -22 188 -35 31 -8 77 -24 280 -98 60&#xA;-22 185 -42 258 -42 28 1 78 13 122 30 85 34 119 37 180 15 59 -21 108 -19&#xA;154 6 42 22 56 22 202 -1 44 -8 89 -10 99 -6 39 15 -11 36 -133 58 l-122 22&#xA;-42 -21 c-70 -34 -82 -35 -168 -13 l-82 21 -89 -32 c-83 -30 -96 -31 -173 -26&#xA;-91 8 -214 35 -261 59 -57 29 -212 76 -286 87 -41 6 -90 15 -109 21 -39 11&#xA;-93 13 -103 4z"></path>
<path d="M4903 4403 c-25 -9 -12 -35 51 -102 35 -37 76 -86 91 -108 15 -23 39&#xA;-46 53 -51 15 -5 77 -43 137 -84 61 -42 120 -78 130 -82 11 -3 33 -24 48 -46&#xA;27 -38 31 -40 80 -40 29 0 79 -7 112 -14 33 -8 99 -19 147 -26 l87 -12 -81&#xA;-54 c-45 -30 -89 -54 -98 -54 -9 0 -34 -13 -56 -29 -28 -20 -55 -30 -96 -34&#xA;-32 -3 -84 -18 -120 -35 -35 -17 -90 -35 -123 -42 -69 -13 -216 -96 -284 -160&#xA;-37 -35 -49 -40 -89 -40 -26 0 -65 -5 -87 -11 -58 -16 -186 -97 -314 -200 -62&#xA;-49 -117 -89 -124 -89 -18 0 -126 -74 -127 -87 0 -21 18 -24 56 -8 20 8 38 15&#xA;39 15 1 0 5 -12 8 -27 8 -37 85 -138 105 -138 40 0 13 59 -65 142 l-32 34 45&#xA;27 c25 15 87 60 137 100 197 157 338 220 430 192 71 -22 167 -37 195 -32 14 3&#xA;47 17 73 32 68 41 78 42 154 20 39 -11 85 -20 103 -20 18 0 49 -8 70 -19 45&#xA;-22 88 -31 217 -41 96 -8 180 -22 330 -54 87 -19 162 -20 240 -1 91 22 152 19&#xA;204 -10 86 -50 206 -70 206 -35 0 9 -19 20 -50 28 -63 17 -177 61 -189 73 -16&#xA;14 -73 11 -186 -12 l-105 -21 -175 37 c-97 21 -227 41 -291 46 -84 6 -134 15&#xA;-184 34 -37 14 -99 28 -136 31 -38 4 -69 8 -69 10 0 2 39 41 88 86 48 45 109&#xA;105 136 132 29 29 71 59 100 70 28 12 62 29 76 39 14 10 54 37 89 60 36 23 66&#xA;48 68 54 3 7 -12 16 -34 22 -47 13 -268 51 -348 60 -95 10 -116 35 -40 47 33&#xA;5 45 11 45 24 0 19 -112 130 -132 130 -7 0 -30 18 -50 39 -20 22 -49 42 -65&#xA;45 -39 9 -123 63 -123 79 0 33 -66 67 -179 92 -31 7 -63 15 -71 18 -8 3 -21 3&#xA;-27 0z m139 -75 c43 -10 62 -22 103 -64 32 -33 74 -63 115 -82 36 -16 78 -44&#xA;94 -61 16 -18 45 -40 65 -51 21 -10 44 -26 51 -35 12 -15 11 -19 -9 -35 -29&#xA;-21 -54 -16 -100 19 -104 80 -177 131 -187 131 -7 0 -15 7 -18 15 -3 9 -19 21&#xA;-36 26 -16 6 -39 26 -50 44 -11 18 -38 49 -60 69 -45 40 -43 41 32 24z m488&#xA;-713 c0 -3 -17 -16 -37 -29 -21 -14 -72 -56 -112 -95 -41 -38 -91 -78 -110&#xA;-87 -20 -9 -49 -23 -64 -30 -34 -17 -127 -18 -180 -3 l-38 10 33 25 c114 85&#xA;196 128 288 151 52 13 101 30 110 38 17 15 110 33 110 20z"></path>
<path d="M9557 4343 c-12 -12 -7 -37 20 -101 14 -34 23 -65 20 -69 -4 -3 -38&#xA;-1 -76 6 -105 17 -126 15 -145 -14 -17 -25 -16 -27 23 -73 58 -69 110 -115&#xA;164 -146 39 -23 55 -26 91 -21 38 6 44 4 60 -20 9 -14 33 -33 53 -43 l35 -17&#xA;23 30 24 29 53 -28 c29 -15 73 -38 98 -51 40 -22 46 -23 60 -9 13 14 13 17 -5&#xA;31 -11 8 -39 23 -63 34 -23 10 -59 30 -79 44 -47 31 -66 32 -87 0 -20 -30 -37&#xA;-32 -61 -5 -10 12 -34 30 -52 41 -27 17 -39 19 -63 11 -23 -9 -33 -7 -52 7&#xA;-13 10 -37 25 -54 34 -17 9 -52 41 -79 73 l-49 57 50 -8 c103 -16 179 -22 187&#xA;-15 5 4 -1 36 -12 70 -12 35 -21 65 -21 67 0 2 19 -8 43 -22 23 -14 65 -36 92&#xA;-49 30 -14 64 -40 84 -66 19 -23 52 -51 75 -61 23 -10 55 -33 72 -51 17 -18&#xA;65 -67 107 -109 76 -75 88 -94 65 -101 -6 -2 -9 -12 -5 -21 7 -19 74 -34 89&#xA;-19 18 18 -1 48 -78 129 -42 43 -84 90 -93 106 -19 29 -112 103 -141 112 -10&#xA;3 -36 27 -58 54 -28 33 -56 53 -89 66 -26 10 -82 42 -123 71 -74 53 -90 61&#xA;-103 47z"></path>
<path d="M1676 3986 l-118 -63 -117 -6 c-199 -11 -312 -52 -483 -174 -78 -56&#xA;-96 -79 -79 -96 6 -6 35 8 81 39 212 146 319 187 490 186 85 0 101 3 154 29&#xA;33 16 67 29 76 29 28 0 202 90 197 103 -2 7 -21 13 -43 14 -31 2 -63 -10 -158&#xA;-61z"></path>
<path d="M4734 3985 c-7 -18 32 -74 60 -84 57 -22 66 -23 66 -7 0 22 8 20 70&#xA;-17 45 -27 160 -77 176 -77 2 0 4 9 4 20 0 13 -10 24 -27 31 -63 25 -120 53&#xA;-153 74 -19 13 -58 28 -87 35 -29 6 -57 18 -64 26 -15 18 -38 18 -45 -1z"></path>
<path d="M13591 3963 c-6 -21 -11 -43 -11 -49 0 -7 -6 -24 -14 -38 -10 -21&#xA;-11 -36 -4 -67 12 -44 6 -58 -16 -40 -21 18 -36 5 -36 -29 0 -16 -4 -32 -10&#xA;-35 -17 -10 -11 -37 16 -77 15 -21 24 -41 21 -44 -3 -3 -22 0 -42 7 -34 12&#xA;-38 12 -51 -6 -21 -28 -18 -34 36 -87 28 -27 50 -51 50 -53 0 -10 -52 -4 -86&#xA;10 -41 17 -54 13 -54 -16 0 -49 58 -106 112 -110 7 -1 -5 -5 -27 -10 -24 -4&#xA;-53 -4 -73 3 -23 7 -37 7 -44 0 -34 -34 52 -122 120 -122 35 -1 36 -2 18 -15&#xA;-11 -8 -30 -15 -42 -15 -13 0 -26 -5 -30 -11 -6 -11 -55 -8 -86 5 -11 5 -20 1&#xA;-28 -14 -10 -19 -9 -27 7 -49 19 -25 29 -31 95 -61 26 -12 26 -13 10 -36 -22&#xA;-31 -53 -39 -93 -25 -36 12 -59 1 -59 -29 0 -26 75 -90 106 -90 16 0 24 -5 22&#xA;-12 -6 -19 -68 -47 -105 -48 -30 0 -31 2 -38 50 -4 32 -12 50 -21 50 -16 0&#xA;-34 -31 -34 -59 0 -12 -4 -29 -9 -39 -6 -9 -13 -33 -16 -53 -3 -21 -12 -42&#xA;-19 -48 -11 -9 -17 -4 -30 24 -10 20 -16 50 -15 68 1 18 -3 43 -8 57 -6 14&#xA;-13 50 -17 80 -12 97 -40 107 -52 19 -4 -27 -11 -52 -15 -55 -5 -3 -6 -16 -3&#xA;-30 5 -18 1 -29 -12 -39 -17 -12 -17 -17 -7 -45 10 -26 10 -31 -2 -26 -16 6&#xA;-26 -16 -15 -34 5 -9 3 -18 -6 -24 -7 -6 -17 -28 -21 -48 l-8 -37 -25 19 -24&#xA;18 26 13 c37 16 44 40 19 60 -18 15 -19 18 -6 29 8 7 15 24 15 38 0 23 -2 24&#xA;-39 18 -48 -7 -59 6 -30 35 28 28 40 74 28 106 -7 20 -14 24 -33 19 -35 -9&#xA;-52 16 -26 39 38 34 21 129 -21 118 -24 -7 -24 -12 -2 85 4 17 0 25 -15 28&#xA;-16 5 -20 16 -24 64 -2 32 -10 66 -17 74 -13 15 -15 15 -26 -1 -7 -10 -15 -48&#xA;-19 -85 -6 -53 -11 -67 -27 -71 -20 -5 -27 -51 -9 -62 12 -7 14 -55 2 -55 -4&#xA;0 -13 5 -18 10 -8 8 -15 6 -23 -4 -15 -18 -6 -69 15 -87 21 -17 18 -43 -3 -34&#xA;-39 16 -58 11 -61 -17 -5 -39 14 -68 45 -68 22 0 24 -2 12 -16 -8 -10 -25 -14&#xA;-47 -12 -24 2 -37 -2 -41 -12 -6 -14 -53 -21 -65 -9 -3 3 8 18 24 34 32 31 37&#xA;49 17 62 -7 4 -13 24 -13 43 1 32 -1 35 -28 35 -34 0 -44 16 -21 35 17 14 20&#xA;65 5 75 -6 4 -8 11 -5 16 4 5 3 19 0 30 -5 16 -13 20 -31 16 -29 -5 -31 10 -8&#xA;54 20 39 10 73 -20 65 -19 -5 -21 -1 -23 42 -3 105 -19 172 -42 172 -16 0 -34&#xA;-60 -28 -95 5 -30 3 -35 -15 -35 -17 0 -19 -5 -15 -32 3 -18 8 -44 13 -58 7&#xA;-22 6 -24 -9 -11 -35 29 -63 -19 -38 -67 4 -9 11 -31 14 -49 6 -31 5 -32 -21&#xA;-27 -57 11 -67 -52 -18 -101 20 -20 22 -26 10 -36 -8 -6 -25 -9 -39 -7 -54 11&#xA;-57 -64 -3 -86 23 -10 26 -15 16 -24 -7 -5 -29 -12 -48 -14 -47 -4 -51 -30&#xA;-11 -67 39 -36 39 -42 1 -35 -34 7 -51 -16 -32 -46 9 -14 8 -19 -3 -24 -17 -6&#xA;-20 -52 -5 -61 17 -11 11 -35 -9 -35 -26 0 -36 17 -21 35 21 25 8 60 -22 63&#xA;-33 4 -35 13 -8 29 15 10 19 22 17 60 -2 47 -3 48 -34 48 -38 0 -39 1 -18 21&#xA;39 39 24 101 -22 89 -27 -6 -29 8 -8 45 27 48 12 97 -21 69 -14 -12 -15 -8 -9&#xA;33 4 29 3 48 -4 52 -6 4 -11 21 -11 37 0 17 -5 39 -11 50 -6 11 -8 33 -4 49 5&#xA;24 13 30 54 40 59 14 140 76 141 107 0 12 -9 27 -19 33 -27 14 -29 13 -36 -19&#xA;-9 -41 -36 -62 -87 -67 -105 -11 -151 -27 -191 -67 l-39 -39 19 -27 c21 -27&#xA;68 -50 80 -38 3 4 -4 18 -17 32 -27 28 -27 28 19 44 39 13 55 1 46 -34 -3 -11&#xA;-11 -48 -17 -82 -8 -47 -14 -60 -25 -56 -12 5 -14 -2 -12 -30 2 -20 0 -39 -4&#xA;-43 -10 -11 -9 -52 3 -59 6 -3 10 -15 10 -26 0 -17 -3 -18 -20 -9 -41 22 -54&#xA;-19 -20 -63 27 -34 25 -39 -14 -32 -29 6 -35 4 -41 -16 -6 -17 -2 -27 15 -41&#xA;12 -10 29 -18 37 -18 31 0 4 -25 -30 -28 -30 -3 -38 -8 -43 -29 -5 -20 -2 -31&#xA;16 -45 12 -10 28 -18 36 -18 24 0 15 -19 -16 -35 -30 -16 -30 -15 -51 20 -21&#xA;35 -22 35 -42 18 -19 -18 -20 -17 -15 9 3 16 -1 36 -8 45 -7 10 -14 33 -14 51&#xA;0 20 -6 35 -16 39 -19 7 -34 -13 -34 -46 0 -14 -7 -32 -15 -41 -12 -13 -13&#xA;-23 -5 -44 9 -25 8 -27 -11 -21 -25 8 -39 -8 -39 -47 0 -28 -14 -35 -39 -19&#xA;-10 7 -11 13 -2 30 6 11 9 32 5 46 -5 20 -12 25 -35 25 -37 0 -47 22 -25 56&#xA;23 34 12 68 -20 61 -24 -4 -33 6 -14 18 19 12 11 55 -12 65 -13 5 -17 9 -10 9&#xA;17 1 15 38 -3 45 -8 3 -15 16 -15 28 0 27 -16 87 -29 107 -16 25 -41 -6 -41&#xA;-50 0 -22 -4 -39 -10 -39 -5 0 -10 -9 -10 -19 0 -11 -5 -23 -11 -27 -6 -3 -9&#xA;-19 -5 -34 4 -22 1 -27 -12 -26 -14 1 -17 -7 -14 -50 2 -47 1 -51 -20 -50 -31&#xA;1 -37 -37 -9 -56 24 -17 18 -28 -16 -28 -28 0 -32 -34 -7 -62 15 -16 15 -18 1&#xA;-24 -8 -3 -28 -4 -44 -2 -26 3 -28 7 -28 43 0 38 -2 40 -28 37 l-28 -3 15 30&#xA;c19 36 11 63 -18 59 -20 -3 -21 1 -18 55 3 47 1 57 -12 57 -12 0 -16 10 -16&#xA;39 0 43 -19 68 -38 49 -7 -7 -12 -23 -12 -38 0 -14 -7 -38 -16 -55 -8 -16 -13&#xA;-37 -11 -47 4 -13 -1 -18 -14 -18 -21 0 -25 -21 -8 -52 9 -16 8 -19 -2 -13&#xA;-18 12 -41 -23 -29 -45 8 -15 4 -17 -26 -15 -43 3 -53 11 -30 28 16 11 17 21&#xA;9 68 -7 49 -11 54 -33 54 -17 0 -24 5 -21 15 14 54 13 61 -6 66 -16 4 -20 14&#xA;-19 42 1 25 -3 36 -11 34 -7 -1 -13 4 -14 10 -3 68 -14 98 -33 98 -16 0 -27&#xA;-29 -30 -75 0 -14 -7 -25 -14 -25 -16 0 -32 -41 -32 -83 0 -34 -12 -61 -24&#xA;-55 -4 1 -15 -9 -24 -24 -15 -25 -15 -30 2 -64 14 -30 14 -35 2 -25 -19 16&#xA;-39 5 -33 -19 2 -9 -4 -22 -14 -29 -11 -6 -19 -20 -19 -30 0 -11 -4 -23 -10&#xA;-26 -5 -3 -10 -15 -10 -26 0 -10 -6 -19 -14 -19 -19 0 -32 20 -19 29 6 3 13&#xA;22 16 41 3 19 8 54 12 76 9 49 -7 65 -36 38 -20 -18 -95 -29 -104 -14 -3 4 13&#xA;15 34 23 30 12 42 25 55 57 20 50 20 84 2 99 -12 10 -18 7 -32 -13 -22 -35&#xA;-54 -42 -95 -20 -30 16 -32 18 -14 23 31 9 75 42 75 56 0 16 -84 50 -99 41&#xA;-13 -8 -51 15 -51 31 0 9 12 11 43 7 55 -7 107 23 107 62 0 24 -3 26 -29 21&#xA;-17 -4 -36 0 -47 8 -11 8 -32 15 -49 15 l-30 0 40 21 c47 24 75 54 75 80 0 18&#xA;-11 24 -35 19 -23 -4 -115 12 -115 21 0 5 7 9 16 9 27 0 86 66 82 92 -3 24 -5&#xA;24 -82 12 l-39 -7 21 27 c11 15 26 43 33 63 9 30 9 38 -5 51 -13 14 -20 14&#xA;-36 4 -28 -17 -29 -16 -18 29 8 29 8 43 -1 52 -6 6 -11 25 -11 42 0 46 -29&#xA;137 -43 132 -15 -5 -37 -91 -37 -151 0 -40 -2 -46 -14 -37 -10 9 -16 8 -26 -4&#xA;-12 -14 -11 -29 5 -67 5 -14 2 -18 -14 -18 -30 0 -28 -50 4 -88 14 -17 25 -32&#xA;25 -35 0 -11 -51 -3 -61 9 -6 8 -18 14 -25 14 -8 0 -14 9 -14 19 0 29 -29 74&#xA;-63 96 -17 11 -38 32 -46 47 -18 31 -104 98 -125 98 -37 0 -20 -29 79 -132 59&#xA;-62 124 -137 144 -167 38 -59 77 -100 95 -102 6 -1 -9 -5 -34 -9 -25 -4 -56&#xA;-3 -69 2 -28 10 -51 -5 -51 -34 0 -23 43 -65 85 -83 l30 -13 -32 -1 c-17 -1&#xA;-35 -5 -38 -11 -3 -5 -22 -10 -41 -10 -94 0 -27 -118 69 -120 34 0 36 -20 2&#xA;-20 -14 0 -29 -8 -35 -21 -9 -16 -20 -20 -53 -18 -61 3 -67 1 -67 -20 0 -24&#xA;47 -71 71 -71 24 0 24 -12 1 -33 -21 -19 -48 -22 -57 -7 -12 19 -42 10 -54&#xA;-17 -10 -23 -9 -30 7 -52 10 -14 32 -33 48 -41 39 -20 41 -29 8 -51 -27 -17&#xA;-29 -17 -66 2 -26 13 -44 17 -51 11 -18 -14 -67 -23 -80 -15 -8 5 -3 9 12 13&#xA;15 3 32 20 43 42 17 32 17 41 6 77 -14 46 -26 50 -53 21 -26 -29 -28 -20 -5&#xA;28 22 45 25 69 11 91 -8 12 -12 13 -25 1 -23 -18 -32 -5 -18 25 19 41 15 76&#xA;-8 82 -16 4 -21 13 -20 42 0 20 -4 60 -9 90 -9 47 -18 61 -68 110 -34 32 -94&#xA;74 -142 99 -80 42 -87 43 -121 32 -31 -10 -42 -10 -67 3 -16 9 -36 23 -44 33&#xA;-8 9 -44 37 -82 61 -48 31 -72 53 -82 78 -8 19 -22 51 -30 70 -11 26 -21 35&#xA;-39 35 -34 0 -41 -16 -20 -48 32 -47 84 -174 84 -205 0 -17 -5 -46 -12 -64&#xA;-15 -41 -6 -58 43 -90 77 -50 103 -70 145 -106 24 -21 48 -36 54 -32 18 11 11&#xA;41 -17 66 -46 40 -111 89 -121 89 -4 0 -21 13 -36 29 -25 26 -28 35 -22 73 4&#xA;24 11 49 15 57 11 16 13 15 115 -64 l60 -47 65 7 c64 6 67 5 110 -27 24 -18&#xA;59 -42 78 -54 19 -12 41 -31 49 -43 8 -11 24 -21 35 -21 23 0 23 3 -2 -64 -15&#xA;-42 -18 -60 -9 -75 8 -17 6 -24 -16 -45 -27 -24 -29 -46 -8 -99 6 -15 3 -17&#xA;-20 -11 -22 5 -27 2 -36 -21 -11 -29 -8 -38 24 -73 17 -20 18 -24 6 -32 -8 -5&#xA;-30 -10 -48 -10 -31 0 -33 -2 -30 -32 2 -26 10 -36 35 -48 43 -20 41 -28 -8&#xA;-36 -42 -7 -60 -27 -40 -47 15 -15 14 -37 -3 -37 -8 0 -21 24 -31 58 -10 31&#xA;-22 62 -27 67 -14 15 -48 -32 -48 -66 0 -15 -4 -31 -10 -34 -5 -3 -10 -14 -10&#xA;-24 0 -20 -36 -35 -46 -20 -3 5 -2 18 1 29 9 28 -2 57 -25 63 -17 4 -18 9 -9&#xA;40 14 53 -14 112 -37 75 -12 -19 -25 31 -14 52 13 24 13 26 -6 44 -8 9 -11 16&#xA;-5 16 16 0 14 47 -2 57 -7 4 -17 30 -23 57 -5 27 -14 51 -20 53 -18 6 -51&#xA;-103 -46 -153 1 -13 -5 -24 -14 -28 -14 -5 -15 -15 -10 -56 7 -49 6 -49 -21&#xA;-47 -23 2 -29 -2 -31 -24 -2 -14 4 -31 12 -39 21 -17 20 -30 -3 -30 -30 0 -47&#xA;-28 -33 -51 15 -24 8 -39 -18 -39 -23 0 -33 25 -16 40 18 14 25 51 14 80 -6&#xA;17 -14 21 -32 18 -38 -7 -56 9 -25 21 31 11 41 33 33 68 -6 22 -10 24 -43 18&#xA;l-36 -7 28 26 c46 42 28 93 -23 66 -32 -17 -34 -7 -5 35 33 50 32 74 -4 88&#xA;-24 9 -27 14 -18 27 15 24 1 53 -22 47 -17 -4 -18 0 -14 34 3 23 1 39 -4 39&#xA;-6 0 -13 22 -17 50 -4 27 -12 52 -18 56 -17 11 -38 -26 -38 -67 0 -29 -4 -38&#xA;-21 -42 -22 -6 -22 -14 -3 -76 6 -20 4 -22 -14 -17 -41 13 -49 -60 -11 -100&#xA;l24 -26 -40 4 c-34 2 -41 -1 -54 -24 -13 -22 -13 -28 -1 -43 8 -9 25 -21 39&#xA;-27 21 -7 23 -11 11 -18 -8 -6 -27 -10 -41 -10 -31 0 -54 -23 -45 -45 3 -9 23&#xA;-23 43 -32 35 -14 36 -16 16 -24 -34 -12 -73 10 -73 44 0 31 -6 33 -32 10 -27&#xA;-24 -35 -7 -10 20 25 27 28 45 8 53 -10 4 -13 15 -9 40 5 29 3 34 -14 34 -18&#xA;0 -21 9 -27 76 -8 81 -20 124 -36 124 -15 0 -38 -64 -33 -93 3 -17 -2 -32 -16&#xA;-46 -17 -17 -19 -25 -11 -46 16 -42 12 -65 -9 -65 -20 0 -51 -24 -51 -40 0 -5&#xA;11 -22 25 -38 14 -17 25 -33 25 -36 0 -3 -15 -6 -34 -6 -48 0 -58 -31 -21 -70&#xA;l26 -28 -30 -4 c-17 -2 -35 0 -41 6 -7 7 -16 7 -30 -2 -24 -15 -24 -13 -5 25&#xA;16 33 11 63 -10 63 -7 0 -15 -6 -18 -12 -2 -7 -8 -10 -12 -6 -5 5 -3 19 3 33&#xA;7 16 8 26 1 30 -9 6 -6 23 8 61 2 6 -5 14 -16 17 -18 4 -21 13 -21 59 0 59&#xA;-11 84 -32 75 -21 -7 -40 -81 -32 -122 5 -31 4 -35 -14 -35 -28 0 -37 -34 -18&#xA;-62 21 -29 20 -35 -4 -41 -24 -6 -27 -39 -5 -61 20 -20 19 -29 -4 -21 -30 9&#xA;-47 -20 -33 -58 15 -39 9 -44 -22 -23 -14 9 -34 16 -46 16 -11 0 -20 5 -20 11&#xA;0 5 4 8 8 5 15 -9 52 24 67 61 25 59 0 102 -43 74 -16 -10 -85 12 -90 28 -2 6&#xA;7 11 20 11 45 0 103 78 83 111 -5 7 -22 9 -47 6 -26 -3 -43 -1 -52 9 -8 8 -23&#xA;11 -33 8 -16 -6 -15 -5 2 9 20 17 20 17 -2 23 -31 9 -29 24 3 24 37 0 86 52&#xA;82 87 -3 27 -5 28 -55 25 -33 -2 -53 1 -53 7 0 6 -7 11 -16 11 -11 0 -3 13 24&#xA;39 42 41 62 95 43 114 -8 8 -22 5 -49 -11 -49 -27 -58 -19 -26 24 26 33 42&#xA;100 31 128 -8 21 -34 10 -53 -23 l-15 -26 6 30 c3 17 10 50 15 74 13 57 5 84&#xA;-21 76 -17 -6 -19 -1 -19 52 0 37 -6 66 -15 79 -15 19 -15 19 -30 0 -9 -11&#xA;-15 -40 -15 -68 0 -36 -4 -48 -15 -48 -10 0 -15 -10 -15 -31 0 -18 -7 -37 -15&#xA;-43 -12 -9 -14 -18 -6 -41 5 -17 12 -45 15 -64 l6 -35 -24 23 c-14 13 -29 20&#xA;-35 16 -19 -11 -12 -65 15 -105 15 -22 24 -43 21 -46 -3 -4 -24 3 -46 14 -40&#xA;21 -41 21 -51 2 -5 -10 -7 -27 -3 -37 11 -31 54 -82 74 -88 24 -8 25 -24 2&#xA;-24 -109 -5 -118 -7 -121 -22 -6 -30 39 -70 86 -76 23 -3 42 -9 42 -14 0 -11&#xA;-55 -49 -72 -49 -8 0 -18 -3 -22 -7 -4 -5 -22 -8 -39 -8 -27 0 -32 -4 -35 -26&#xA;-4 -34 31 -76 79 -96 l39 -15 -25 -20 c-26 -21 -50 -25 -76 -14 -20 9 -49 -18&#xA;-49 -44 0 -21 54 -70 77 -70 14 0 14 -2 -1 -19 -10 -11 -25 -17 -36 -14 -12 3&#xA;-22 -1 -26 -11 -13 -33 -23 -14 -17 31 6 42 4 46 -12 40 -15 -6 -17 -3 -11 23&#xA;4 21 1 32 -8 36 -10 4 -12 17 -9 45 5 32 3 39 -12 39 -11 0 -15 5 -12 14 8 20&#xA;-16 133 -30 147 -15 15 -27 -13 -37 -83 -5 -34 -12 -48 -23 -48 -15 0 -15 -11&#xA;2 -67 6 -19 4 -23 -14 -23 -16 0 -21 -6 -21 -28 0 -15 6 -34 13 -41 10 -11 9&#xA;-13 -6 -7 -10 3 -39 6 -63 6 -45 0 -60 14 -25 23 10 2 26 16 36 30 22 35 5 69&#xA;-33 66 -65 -5 -68 -2 -34 34 37 39 46 83 20 101 -13 8 -23 8 -36 0 -12 -8 -22&#xA;-8 -34 -1 -15 10 -14 14 13 44 16 19 29 42 29 53 0 47 -25 65 -50 35 -17 -21&#xA;-34 -19 -25 2 4 10 8 30 10 45 2 15 9 36 14 47 16 28 3 54 -23 47 -19 -5 -21&#xA;0 -24 51 -1 30 -7 64 -13 75 -18 34 -42 -1 -47 -71 -3 -44 -8 -58 -17 -54 -27&#xA;10 -36 -32 -18 -86 18 -56 15 -68 -15 -52 -14 7 -24 7 -37 -3 -17 -12 -17 -16&#xA;-3 -52 8 -21 25 -43 37 -49 11 -5 21 -13 21 -16 0 -10 -52 -18 -81 -12 -15 3&#xA;-30 -1 -38 -11 -17 -20 0 -51 42 -73 l32 -18 -35 -3 c-19 -2 -40 -8 -47 -14&#xA;-17 -14 0 -43 34 -61 32 -18 18 -29 -47 -37 -30 -3 -46 -10 -48 -21 -5 -25 46&#xA;-79 74 -79 13 0 24 -4 24 -10 0 -5 -6 -10 -14 -10 -7 0 -19 -7 -26 -15 -12&#xA;-14 -16 -13 -40 10 l-27 26 -17 -26 c-9 -14 -14 -30 -11 -35 10 -16 -14 -21&#xA;-34 -8 -14 10 -17 18 -10 28 12 20 11 67 -1 75 -6 4 -17 1 -25 -5 -18 -15 -18&#xA;-10 -4 27 8 22 7 30 -7 40 -12 9 -18 30 -20 74 -5 95 -47 122 -60 38 -4 -22&#xA;-11 -42 -15 -45 -5 -3 -6 -22 -3 -43 5 -34 3 -39 -16 -44 -23 -6 -24 -24 -5&#xA;-69 6 -14 2 -18 -18 -18 -25 0 -37 -16 -37 -49 0 -14 -6 -17 -25 -13 -24 4&#xA;-25 7 -19 49 7 49 -2 63 -43 63 -18 0 -20 5 -17 33 2 17 6 41 9 52 3 11 -2 29&#xA;-10 39 -11 15 -17 17 -29 7 -13 -11 -14 -5 -10 43 5 57 -6 77 -31 56 -13 -11&#xA;-15 -5 -15 34 0 52 -13 86 -34 86 -16 0 -26 -31 -26 -81 0 -30 -3 -35 -22 -35&#xA;-20 1 -23 -4 -22 -31 1 -18 -2 -33 -7 -33 -13 0 -11 -34 3 -48 9 -9 5 -12 -19&#xA;-12 -17 0 -33 -6 -36 -14 -7 -18 20 -56 39 -56 8 0 14 -4 14 -10 0 -5 -15 -10&#xA;-34 -10 -19 0 -37 -6 -39 -12 -9 -22 -47 34 -47 68 0 44 -22 60 -45 34 -13&#xA;-14 -16 -28 -11 -54 6 -32 4 -37 -24 -51 -34 -17 -37 -27 -15 -45 8 -7 15 -19&#xA;15 -27 0 -11 -4 -11 -21 -3 -28 15 -47 6 -51 -23 -3 -21 -6 -23 -26 -16 -19 7&#xA;-21 11 -10 28 9 15 9 23 -1 35 -8 9 -20 16 -28 16 -10 0 -11 4 -3 19 15 29 12&#xA;49 -8 55 -15 5 -19 17 -20 52 0 54 -21 84 -41 60 -7 -8 -15 -40 -18 -70 -4&#xA;-40 -10 -56 -21 -56 -11 0 -13 -9 -9 -40 3 -26 1 -39 -6 -37 -6 1 -13 -9 -15&#xA;-23 -5 -33 -14 -41 -32 -30 -12 8 -12 14 3 45 24 51 15 73 -31 77 -45 4 -54&#xA;29 -17 46 22 10 26 18 23 45 -2 26 -8 33 -28 35 -42 6 -51 21 -29 43 27 27 22&#xA;64 -8 63 -26 -1 -29 13 -12 50 14 29 -2 59 -27 49 -11 -4 -14 6 -14 44 0 27&#xA;-6 57 -13 68 -13 17 -15 17 -30 -6 -10 -13 -17 -40 -17 -61 0 -27 -4 -38 -15&#xA;-38 -19 0 -21 -60 -3 -78 19 -19 -6 -39 -27 -22 -11 9 -19 10 -27 2 -14 -14&#xA;-4 -52 23 -81 17 -18 19 -25 9 -31 -7 -5 -19 -6 -27 -3 -15 6 -53 -24 -53 -42&#xA;0 -15 42 -55 58 -55 21 0 13 -19 -10 -24 -48 -10 -56 -4 -63 43 -4 25 -9 50&#xA;-12 54 -9 15 -33 -15 -39 -52 -3 -20 -8 -43 -11 -51 -4 -8 -5 -21 -4 -29 2&#xA;-12 -3 -27 -25 -69 -1 -1 -8 0 -17 4 -11 4 -14 14 -10 40 5 32 4 34 -23 34&#xA;-22 0 -25 3 -16 12 7 7 12 22 12 35 0 18 -6 23 -25 23 -28 0 -30 7 -10 33 17&#xA;23 9 47 -16 47 -16 0 -17 4 -8 27 11 31 6 53 -14 53 -10 0 -16 17 -19 55 -3&#xA;31 -10 61 -16 67 -21 21 -42 -13 -45 -70 -2 -41 -6 -52 -19 -52 -20 0 -28 -18&#xA;-18 -46 6 -15 3 -24 -11 -32 -22 -14 -25 -51 -7 -71 8 -9 9 -12 1 -7 -22 12&#xA;-45 -5 -40 -32 3 -18 -1 -31 -16 -43 -17 -14 -19 -19 -9 -32 15 -18 6 -44 -19&#xA;-58 -16 -8 -19 -6 -19 16 0 32 -26 95 -39 95 -6 0 -15 -8 -20 -17 -8 -14 -10&#xA;-9 -11 24 0 30 -6 48 -21 62 -12 11 -18 24 -15 29 9 16 -16 63 -30 58 -9 -3&#xA;-15 9 -20 39 -13 87 -48 98 -61 19 -3 -21 -14 -46 -25 -55 -14 -13 -16 -24&#xA;-11 -49 5 -28 3 -32 -9 -27 -34 13 -50 -34 -21 -65 15 -17 14 -18 -16 -18 -42&#xA;0 -50 -24 -20 -57 l24 -26 -36 6 c-21 3 -41 1 -48 -6 -8 -8 -11 -1 -11 26 0&#xA;25 -5 40 -16 44 -8 3 -13 12 -10 19 7 19 -3 44 -18 44 -16 0 -37 -37 -30 -55&#xA;4 -9 0 -15 -9 -15 -25 0 -30 19 -13 45 9 14 14 35 11 47 -3 13 -7 37 -9 53 -6&#xA;46 -16 65 -37 65 -23 0 -26 28 -4 36 20 8 19 30 -3 46 -11 8 -24 38 -32 76&#xA;-12 57 -31 85 -47 69 -3 -3 -8 -27 -10 -52 -3 -25 -10 -48 -14 -51 -5 -3 -6&#xA;-23 -3 -45 6 -34 4 -39 -13 -39 -24 0 -43 -19 -43 -43 0 -15 6 -18 37 -15 l38&#xA;3 -4 -40 c-1 -22 -9 -47 -17 -56 -11 -12 -11 -18 -2 -27 9 -9 9 -12 -1 -12 -8&#xA;0 -11 -6 -7 -16 4 -9 1 -23 -5 -31 -9 -10 -9 -19 1 -39 10 -18 11 -27 3 -35&#xA;-18 -18 -33 -1 -26 31 3 19 1 30 -6 30 -6 0 -11 11 -11 24 0 13 -7 29 -15 36&#xA;-10 8 -15 30 -15 61 0 48 -16 99 -32 99 -4 0 -8 -4 -8 -10 0 -15 -38 -50 -55&#xA;-50 -8 0 -15 7 -15 15 0 10 -10 15 -33 15 -18 0 -42 7 -53 15 -19 14 -19 14 1&#xA;15 30 1 77 68 73 105 -3 32 0 31 -80 18 -45 -7 -54 14 -10 23 44 9 64 29 60&#xA;61 -3 27 -5 28 -50 25 -48 -4 -60 6 -34 27 29 24 47 78 36 106 -10 26 -11 27&#xA;-35 11 -23 -15 -55 -22 -55 -11 0 2 11 24 25 49 39 71 27 150 -15 98 -23 -28&#xA;-30 -19 -30 37 0 70 -11 122 -27 128 -8 3 -17 3 -20 -1 -10 -10 -24 -98 -23&#xA;-146 l1 -45 -24 23 c-18 17 -26 19 -35 10 -23 -23 -7 -138 20 -138 4 0 8 -4 8&#xA;-9 0 -17 -40 -23 -57 -10 -39 33 -54 -79 -15 -123 25 -30 8 -49 -38 -42 -38 6&#xA;-40 5 -40 -20 0 -33 40 -106 58 -106 8 0 12 -6 9 -12 -3 -8 -20 -12 -48 -11&#xA;-65 3 -76 -33 -18 -57 36 -15 38 -34 4 -27 -16 2 -34 -2 -47 -12 -17 -14 -19&#xA;-21 -9 -38 6 -12 20 -25 31 -28 30 -9 26 -45 -4 -45 -33 0 -59 -51 -50 -97 5&#xA;-26 3 -33 -10 -33 -22 0 -31 26 -16 45 17 21 8 59 -18 70 -15 7 -20 15 -16 25&#xA;4 8 9 33 12 54 4 36 3 39 -18 33 -19 -5 -21 -3 -16 19 3 13 9 35 12 49 5 20 3&#xA;25 -14 25 -17 0 -20 8 -24 76 -6 84 -20 111 -44 80 -8 -11 -14 -32 -14 -47 0&#xA;-15 -5 -31 -11 -34 -7 -5 -8 -25 -4 -57 6 -44 5 -49 -11 -46 -14 2 -20 -4 -22&#xA;-22 -2 -14 -9 -31 -14 -38 -8 -9 -6 -18 7 -32 16 -18 16 -20 2 -20 -20 0 -23&#xA;-30 -5 -48 20 -20 0 -26 -44 -12 -59 18 -63 24 -33 44 18 12 25 24 23 39 -3&#xA;19 -10 22 -55 25 -59 3 -74 25 -24 35 37 8 61 32 61 62 0 22 -24 40 -40 30 -4&#xA;-3 -13 2 -20 10 -7 8 -21 15 -31 15 -27 0 -24 9 17 44 34 29 36 35 30 70 -8&#xA;42 -25 53 -56 36 -33 -18 -35 -6 -10 55 14 35 20 64 16 81 -7 26 -14 27 -58 9&#xA;-15 -6 -15 -2 0 53 18 68 12 97 -18 87 -18 -6 -20 -2 -20 52 0 53 -11 83 -31&#xA;83 -13 0 -32 -62 -31 -101 1 -30 -1 -37 -13 -33 -9 4 -19 -3 -26 -20 -10 -21&#xA;-9 -34 4 -68 10 -24 13 -46 8 -51 -5 -5 -12 -4 -15 2 -12 19 -36 12 -47 -13&#xA;-9 -20 -7 -31 15 -68 14 -25 26 -48 26 -52 0 -4 -18 -5 -40 -1 -36 6 -41 4&#xA;-51 -19 -14 -29 0 -73 32 -102 31 -28 24 -44 -17 -41 -24 1 -40 -3 -47 -14&#xA;-16 -25 1 -69 33 -87 37 -21 34 -36 -9 -40 -23 -2 -35 -10 -41 -28 -5 -13 -14&#xA;-24 -20 -24 -13 0 -13 23 0 36 6 6 11 28 13 50 2 37 1 39 -25 37 -33 -2 -34 1&#xA;-7 28 25 25 21 54 -8 53 -20 0 -20 1 -6 22 16 26 9 48 -13 40 -12 -4 -14 5&#xA;-12 46 2 40 0 53 -11 53 -11 0 -15 15 -15 57 -1 67 -19 94 -42 64 -8 -11 -14&#xA;-37 -14 -57 0 -21 -5 -41 -11 -44 -7 -5 -8 -25 -4 -54 6 -45 5 -48 -17 -47&#xA;-21 1 -23 -3 -22 -44 1 -25 5 -56 9 -70 8 -22 7 -24 -8 -11 -39 31 -66 -30&#xA;-32 -75 14 -19 21 -64 9 -64 -4 0 -12 7 -19 17 -18 24 -45 9 -45 -24 0 -15 9&#xA;-43 20 -60 l20 -33 -55 0 c-56 0 -67 8 -40 30 17 14 21 95 5 105 -5 3 -18 0&#xA;-29 -7 -30 -19 -34 -5 -10 36 14 24 19 45 15 61 -8 31 -20 32 -40 3 -21 -29&#xA;-21 -15 0 16 14 22 14 25 -5 38 -14 10 -17 18 -10 28 11 19 11 51 0 69 -8 13&#xA;-12 13 -26 1 -15 -13 -17 -11 -14 20 7 82 -24 168 -48 138 -12 -15 -24 -78&#xA;-24 -125 -1 -22 -6 -32 -20 -36 -22 -6 -27 -51 -7 -63 9 -6 5 -10 -12 -14 -21&#xA;-5 -25 -12 -26 -44 -1 -23 2 -32 7 -25 6 10 10 7 17 -11 12 -31 6 -42 -21 -38&#xA;-16 2 -23 -3 -25 -19 -4 -28 -32 -40 -32 -13 0 24 -26 39 -53 32 -21 -5 -21&#xA;-5 1 23 34 43 29 58 -15 51 -30 -5 -43 -1 -63 16 -15 13 -20 23 -13 25 6 2 30&#xA;17 52 34 30 21 41 36 41 55 0 26 -1 26 -49 20 -44 -6 -51 -4 -61 14 -6 11 -22&#xA;23 -35 26 -32 8 -33 23 -2 17 48 -9 116 107 73 123 -8 3 -23 1 -33 -4 -13 -7&#xA;-26 -4 -51 13 -33 23 -33 23 -10 30 32 10 68 45 68 67 0 22 -23 24 -40 3 -23&#xA;-28 -32 -15 -10 15 43 60 19 119 -31 75 -17 -16 -19 -16 -25 -2 -3 9 3 28 14&#xA;44 29 40 34 66 18 88 -11 16 -17 17 -29 7 -12 -10 -15 -7 -21 19 -3 17 -6 44&#xA;-6 58 0 15 -6 35 -13 46 -13 17 -15 17 -30 -6 -10 -14 -17 -43 -17 -70 0 -42&#xA;-2 -47 -20 -42 -14 4 -23 -2 -31 -20 -10 -22 -8 -32 15 -73 14 -26 24 -49 22&#xA;-51 -2 -3 -18 3 -35 12 -30 15 -31 15 -42 -9 -13 -27 0 -74 29 -108 17 -21 10&#xA;-23 -17 -6 -22 14 -51 4 -51 -17 0 -26 46 -65 77 -65 l28 0 -34 -21 c-26 -15&#xA;-39 -18 -60 -11 -14 5 -32 7 -38 5 -20 -7 -15 -47 10 -84 20 -29 29 -34 58&#xA;-32 32 2 32 1 11 -9 -18 -9 -22 -17 -17 -36 8 -33 -7 -41 -62 -31 -55 11 -63&#xA;6 -63 -32 0 -41 54 -96 106 -108 23 -5 30 -9 17 -10 -12 -1 -31 -10 -41 -22&#xA;-18 -18 -24 -19 -61 -9 -50 13 -56 10 -71 -35 -14 -44 8 -95 43 -95 30 0 72&#xA;-44 54 -57 -23 -19 -65 -24 -70 -9 -3 8 -20 17 -37 21 -25 5 -31 11 -27 26 3&#xA;10 0 20 -7 22 -7 3 -5 15 7 39 25 48 19 74 -15 70 -38 -4 -42 13 -13 55 25 38&#xA;30 59 19 87 -7 18 -39 22 -49 6 -4 -6 -11 -8 -16 -5 -5 3 0 16 12 28 28 30 24&#xA;102 -6 102 -26 0 -30 26 -10 69 17 36 13 61 -10 52 -10 -3 -15 12 -20 54 -4&#xA;32 -13 67 -20 77 -13 17 -15 15 -29 -18 -8 -20 -16 -63 -18 -96 -3 -53 -5 -59&#xA;-22 -55 -17 5 -18 1 -13 -34 3 -21 9 -50 13 -63 6 -22 5 -22 -16 -11 -18 10&#xA;-24 9 -31 -1 -13 -21 -11 -36 11 -77 l20 -37 -35 -3 c-30 -3 -35 -7 -35 -28 0&#xA;-13 9 -33 21 -45 20 -20 20 -49 -1 -49 -5 0 -10 -6 -10 -13 0 -10 -13 -14 -45&#xA;-13 -53 1 -60 20 -20 60 25 26 32 60 16 85 -8 12 -14 12 -41 1 -45 -19 -63 2&#xA;-27 31 38 29 57 69 46 97 -9 23 -25 28 -48 13 -38 -24 -56 24 -21 59 26 26 35&#xA;66 21 97 -11 24 -13 24 -35 10 -33 -22 -38 -11 -16 34 35 68 21 136 -19 96&#xA;-10 -10 -11 -3 -6 34 6 37 4 47 -9 52 -9 4 -13 13 -10 22 7 17 -14 104 -28&#xA;120 -6 6 -12 5 -17 -4 -12 -19 -24 -90 -21 -121 2 -20 -1 -22 -12 -12 -30 24&#xA;-38 -20 -13 -68 17 -33 4 -50 -21 -29 -37 31 -39 -51 -2 -103 24 -35 16 -51&#xA;-17 -36 -27 12 -55 -2 -55 -29 0 -22 39 -93 52 -93 6 0 3 -9 -6 -19 -14 -16&#xA;-22 -18 -36 -9 -25 16 -50 3 -50 -26 0 -40 22 -78 54 -91 l30 -13 -32 -16&#xA;c-24 -12 -37 -14 -52 -6 -16 9 -22 6 -36 -15 -14 -21 -14 -30 -4 -55 7 -17 26&#xA;-40 41 -51 42 -29 38 -49 -10 -49 -45 0 -63 -17 -66 -64 -2 -31 -24 -84 -25&#xA;-58 0 6 -9 12 -19 12 -30 0 -32 13 -10 49 22 37 19 64 -8 59 -14 -2 -17 3 -15&#xA;32 2 19 -4 55 -13 79 -8 24 -15 56 -15 71 0 67 -31 82 -50 24 -7 -19 -9 -51&#xA;-6 -70 5 -21 3 -34 -4 -34 -6 0 -15 -11 -21 -24 -9 -19 -8 -29 5 -47 20 -29&#xA;20 -39 2 -39 -7 0 -20 -7 -27 -16 -11 -14 -10 -21 4 -46 17 -30 17 -31 -4 -46&#xA;-21 -15 -22 -42 -4 -84 5 -13 3 -18 -9 -18 -14 0 -16 -17 -16 -130 l0 -130&#xA;6915 0 6915 0 0 125 c0 107 -2 125 -17 134 -16 8 -16 13 -4 46 12 34 11 39 -8&#xA;59 -18 19 -20 30 -15 68 4 29 2 48 -5 52 -6 4 -11 31 -12 59 -1 61 -10 99 -25&#xA;104 -15 5 -33 -42 -36 -90 -1 -21 -6 -41 -10 -43 -4 -3 -8 -15 -8 -26 0 -12&#xA;-7 -29 -16 -39 -15 -16 -15 -20 0 -41 9 -12 16 -26 16 -30 0 -14 -28 -8 -33 7&#xA;-4 8 -26 17 -56 21 -28 4 -58 12 -67 19 -14 10 -10 15 32 36 27 13 56 36 64&#xA;51 13 25 13 29 -2 45 -14 13 -23 15 -50 7 -27 -9 -39 -7 -63 8 -16 10 -38 15&#xA;-47 12 -10 -3 -32 5 -50 18 -18 13 -35 24 -37 25 -2 2 -1 6 2 9 4 4 19 -2 34&#xA;-12 31 -20 72 -20 89 2 6 8 15 14 21 14 5 0 22 13 37 29 20 21 27 37 24 57 -3&#xA;30 -22 36 -60 20 -11 -5 -23 -1 -35 13 -10 12 -29 21 -45 21 -16 0 -28 4 -28&#xA;8 0 5 -12 14 -26 21 -15 6 -24 14 -21 17 3 3 15 0 27 -6 41 -22 150 50 150&#xA;100 0 9 -8 24 -18 33 -16 14 -21 15 -38 2 -23 -16 -89 -14 -107 4 -8 8 -5 11&#xA;14 9 37 -3 88 39 95 80 9 45 -6 58 -38 32 -25 -19 -88 -28 -88 -12 0 5 14 18&#xA;30 31 36 26 66 82 57 105 -8 19 -40 21 -67 4 -33 -21 -45 3 -21 43 23 40 36&#xA;118 22 139 -8 12 -14 11 -36 -10 l-27 -25 8 63 c6 53 4 62 -10 62 -20 0 -21&#xA;16 -1 24 19 7 19 30 1 45 -7 6 -16 25 -20 41 -8 41 -23 38 -35 -7z m-12541&#xA;-1123 c0 -5 11 -12 25 -16 38 -9 33 -37 -5 -29 -22 5 -32 3 -36 -9 -8 -20 -34&#xA;-21 -34 -2 0 7 7 19 15 26 8 7 15 19 15 26 0 8 5 14 10 14 6 0 10 -4 10 -10z&#xA;m976 -30 c16 0 18 -18 5 -39 -8 -13 -12 -13 -27 0 -9 8 -26 13 -37 11 -26 -5&#xA;-67 6 -67 18 0 6 9 10 19 10 10 0 29 9 42 19 23 19 24 19 37 0 7 -10 20 -19&#xA;28 -19z m1934 1 c0 -17 -5 -33 -11 -37 -6 -3 -9 -15 -6 -25 6 -24 -13 -29 -41&#xA;-11 l-23 15 23 11 c15 7 23 21 23 36 0 24 11 40 28 40 4 0 7 -13 7 -29z m8662&#xA;-47 c-22 -15 -62 -8 -62 11 0 39 11 44 46 23 33 -19 34 -21 16 -34z m-11032&#xA;11 c0 -10 -10 -15 -32 -15 l-33 0 25 14 c33 19 40 19 40 1z m207 7 c16 -10 5&#xA;-52 -12 -46 -14 6 -26 39 -17 48 7 8 15 7 29 -2z m-1182 -16 c26 -13 26 -15 8&#xA;-25 -22 -11 -43 2 -43 26 0 16 2 16 35 -1z m13143 -25 c15 -22 15 -23 -9 -19&#xA;-16 2 -25 10 -27 27 -4 29 15 25 36 -8z m-258 5 c0 -7 -6 -19 -14 -25 -19 -16&#xA;-32 5 -16 24 16 19 30 19 30 1z m-12961 -90 c-14 -16 -22 1 -14 31 l8 28 7&#xA;-25 c4 -14 3 -29 -1 -34z m1441 47 c-1 -26 -17 -34 -46 -21 l-28 13 34 6 c19&#xA;4 36 7 38 8 1 0 2 -2 2 -6z m6530 -2 c0 -16 -28 -20 -34 -5 -4 9 1 14 14 14&#xA;11 0 20 -4 20 -9z m4839 -8 c3 -2 -5 -14 -18 -26 -22 -22 -22 -22 -37 -3 -24&#xA;33 -18 46 19 39 17 -3 34 -8 36 -10z m631 -29 c0 -6 -6 -17 -14 -23 -11 -9&#xA;-22 -6 -50 13 l-36 24 30 7 c16 4 33 11 36 16 6 11 33 -19 34 -37z m-11637&#xA;-15 c-7 -7 -19 -9 -28 -6 -13 6 -13 10 -3 27 11 17 14 18 27 5 11 -11 12 -18&#xA;4 -26z m785 -6 c-7 -9 -15 -10 -30 -2 -19 10 -19 12 -2 30 16 18 18 18 30 1 8&#xA;-12 9 -21 2 -29z m9461 33 c9 -10 7 -17 -5 -27 -14 -11 -18 -10 -30 6 -8 10&#xA;-14 22 -14 27 0 13 37 9 49 -6z m-8665 -4 c2 -4 1 -14 -4 -22 -7 -11 -11 -11&#xA;-24 -1 -9 7 -13 17 -10 22 7 11 31 12 38 1z m9236 -28 c0 -18 -30 -26 -36 -9&#xA;-8 19 18 47 28 31 4 -6 8 -16 8 -22z m-6050 -4 c0 -11 -6 -20 -14 -20 -21 0&#xA;-31 21 -15 31 22 14 29 11 29 -11z m1084 5 c3 -9 -1 -18 -10 -22 -19 -7 -28 2&#xA;-21 22 8 19 23 19 31 0z"></path>
<path d="M13704 3875 c-4 -9 -4 -18 -1 -21 3 -3 63 -22 133 -43 71 -22 157&#xA;-49 192 -62 54 -21 64 -22 72 -9 5 8 9 18 7 23 -4 14 -274 105 -360 121 -29 5&#xA;-39 4 -43 -9z"></path>
<path d="M7010 3736 c0 -9 18 -27 39 -40 21 -14 51 -42 66 -63 22 -29 54 -51&#xA;144 -95 141 -69 248 -105 264 -89 14 14 -1 30 -45 47 -74 28 -164 65 -183 77&#xA;-11 6 -45 24 -75 39 -34 17 -64 41 -80 65 -26 38 -52 56 -102 68 -22 6 -28 4&#xA;-28 -9z"></path>
<path d="M640 3542 c-25 -8 -102 -35 -172 -60 -122 -43 -151 -64 -113 -79 19&#xA;-7 126 22 177 48 21 11 54 19 73 19 51 0 120 66 88 83 -5 2 -28 -3 -53 -11z"></path>
<path d="M13868 3432 c-7 -25 9 -42 39 -42 13 0 56 -10 97 -22 76 -22 106 -20&#xA;106 7 0 18 -18 25 -115 50 -116 29 -122 29 -127 7z"></path>
<path d="M7887 3430 c-21 -4 -48 -5 -61 -3 -13 3 -28 -2 -36 -12 -12 -15 -12&#xA;-19 5 -32 15 -11 35 -13 80 -9 54 5 64 3 99 -20 27 -18 59 -29 100 -34 62 -6&#xA;106 -25 186 -79 25 -17 55 -31 68 -31 13 0 37 -13 53 -29 16 -16 54 -42 84&#xA;-57 45 -23 57 -26 67 -15 11 10 8 16 -12 32 -50 39 -160 107 -183 113 -13 3&#xA;-39 16 -58 30 -79 56 -147 86 -197 86 -40 0 -59 7 -101 35 -28 19 -52 34 -53&#xA;34 -2 -1 -20 -5 -41 -9z"></path>
<path d="M972 3384 c2 -11 18 -22 40 -29 20 -5 40 -13 44 -17 14 -15 62 -8 68&#xA;9 9 22 -7 30 -69 38 -27 4 -58 9 -68 12 -14 4 -18 0 -15 -13z"></path>
<path d="M1362 3356 c-74 -28 -76 -30 -68 -52 7 -19 20 -17 116 18 42 15 66&#xA;29 68 41 5 24 -37 22 -116 -7z"></path>
<path d="M9577 3223 c-14 -13 -7 -33 11 -33 26 0 34 11 21 27 -13 14 -22 16&#xA;-32 6z"></path>
<path d="M9240 3160 c-13 -11 -29 -20 -37 -20 -15 0 -133 -80 -133 -89 0 -4 4&#xA;-12 9 -19 10 -16 44 -1 118 50 55 37 91 43 137 24 44 -19 102 -21 112 -5 8 14&#xA;-10 26 -58 39 -20 6 -49 17 -65 25 -38 20 -56 19 -83 -5z"></path>
<path d="M8911 3005 c-18 -8 -42 -15 -52 -15 -23 0 -26 -38 -4 -46 23 -9 81 5&#xA;106 25 20 16 21 21 10 35 -16 19 -17 19 -60 1z"></path>
</g>
</svg>